<?xml version="1.0" encoding="utf-8" ?>
<!DOCTYPE svg PUBLIC "-//W3C//DTD SVG 1.1//EN" "http://www.w3.org/Graphics/SVG/1.1/DTD/svg11.dtd">
<svg xmlns="http://www.w3.org/2000/svg" xmlns:xlink="http://www.w3.org/1999/xlink" x="0px" y="0px" class="squid-ink"
    version="1.1" viewBox="0 0 100 100" xml:space="preserve">
    <defs>
        <style type="text/css">
            g {
                display: none
            }
 
            g:target,
            g:target g {
                display: inline
            }

            .glyph {
                fill: transparent;
                stroke-width: 5%;
                stroke-linecap: round;
                stroke-linejoin: round;
                stroke: currentColor
            }

            .color-white {
                color: #fff
            }

            .color-red {
              color: red;
            }

            .color-blue {
                color: #369
            }

            .fill {
                fill: currentColor;
                stroke: 0
            }

            .color-pink {
                color: #ff435a
            }

            .color-lightblue {
                color: #3399cc
            }
        </style>
    </defs>
    <defs>
        <symbol id="delivery" viewBox="0 0 48 48">
            <circle cx="37" cy="42" r="3" />
            <circle cx="19" cy="42" r="3" />
            <circle cx="12" cy="12" r="10" />

            <polyline points="11,7 11,13 17,13" />
            <path d="M25,11h6 c1.1045685,0,2,0.8954306,2,2v20c0,1.1045685-0.8954315,2-2,2H11" />
            <path
                d="M33,19 l10.2679749,7.8984432C44.9905701,28.2235165,46,30.2735271,46,32.4468117V42c0,0.5522842-0.4477158,1-1,1h-2" />

            <line x1="31" y1="43" x2="25" y2="43" />
            <path d="M10,25v17 c0,0.5522842,0.4477148,1,1,1h2" />
            <line x1="8" y1="32" x2="1" y2="32" />
            <line x1="8" y1="35" x2="4" y2="35" />
            <line x1="8" y1="38" x2="6" y2="38" />
        </symbol>
        <symbol id="search" viewBox="0 0 48 48">
            <g>
                <circle cx="19.4" cy="17.9" r="13.1" />
                <!-- <circle cx="19.4" cy="17.9" r="8"/> -->
                <path d="M29.4,26.9l12,12.9c0.9,1,0.8,2.5-0.2,3.4l0,0c-1,0.9-2.5,0.8-3.4-0.2L25.3,29.7" />
            </g>
        </symbol>
        <symbol id="pdf-fill" viewBox="0 0 48 48">
            <g>
                <g>
                    <g>
                        <path d="M15,39C15,39,15,39,15,39c-1.2,0-2-0.8-2.1-2c-0.2-2.2,2.3-5.8,8.2-6.8c0.8-1.7,1.4-3.6,1.9-5.7
					c-1-2-1.7-3.9-2-5.4c-0.4-1.9,0-3,0.5-3.6c0.9-1.1,2.5-1.1,3.5,0c0.7,0.8,1,1.9,0.9,3.3c-0.1,1-0.3,3-0.8,5.5
					c1.1,2.2,2.4,4.2,3.8,5.9c5.5,0.7,7.9,2.7,7.8,4.5c0,0.9-0.7,1.7-2.1,1.7c-0.6,0-1.3-0.2-2-0.5c-1.5-0.7-3.1-2-4.7-3.8
					c-1.7-0.2-3.7-0.2-5.5,0c-1.3,2.5-2.8,4.4-4.6,5.7C16.8,38.6,15.8,39,15,39z M19.8,32.6c-2.6,0.8-4.1,2.2-4.7,3.4
					c-0.3,0.6-0.2,1-0.2,1l0,0l0,0c0.1,0,0.7-0.1,1.6-0.8C17.8,35.3,18.9,34.1,19.8,32.6z M31.3,32.7c0.7,0.6,1.4,1.1,2.1,1.4
					c0.7,0.3,1.1,0.3,1.3,0.3C34.4,34,33.5,33.3,31.3,32.7z M24.5,29.9c0.6,0,1.2,0,1.7,0c-0.6-0.9-1.3-1.8-1.8-2.8
					c-0.3,1-0.6,1.9-1,2.8C23.8,29.9,24.2,29.9,24.5,29.9z M23.3,16.8c0,0-0.1,0-0.2,0.1c-0.2,0.2-0.3,0.9-0.1,1.9
					c0.1,0.7,0.4,1.5,0.7,2.4c0.2-1.1,0.2-1.9,0.3-2.4c0.1-1.1-0.3-1.6-0.4-1.7C23.5,16.9,23.4,16.8,23.3,16.8z" />
                    </g>
                </g>
                <g>
                    <g>
                        <path d="M40,47H8c-1.7,0-3-1.3-3-3V4c0-1.7,1.3-3,3-3h22c0.3,0,0.5,0.1,0.7,0.3l12,12c0.2,0.2,0.3,0.4,0.3,0.7v30
					C43,45.7,41.7,47,40,47z M8,3C7.4,3,7,3.4,7,4v40c0,0.6,0.4,1,1,1h32c0.6,0,1-0.4,1-1V14.4L29.6,3H8z" />
                    </g>
                </g>
                <g>
                    <g>
                        <path d="M42,15H30c-0.6,0-1-0.4-1-1V3h2v10h11V15z" />
                    </g>
                </g>
            </g>
        </symbol>
        <symbol id="pdf" viewBox="0 0 48 48">
            <path d="M24.9945564,18.7906666
				C25.3055935,14.8490992,21.0517902,14.6382093,22,18.9942856c0.9689808,4.4514942,6.0515327,13.7662811,11,16
				c4.4760246,2.020462,4.75-4.0556374-8.4563332-4.0556374c-12.1699171,0-12.7936668,10.2431374-7.293417,6.0556374
				C23.0645657,32.5676804,24.6875,22.6817856,24.9945564,18.7906666z" />
            <path
                d="M40,46H8
				c-1.1045694,0-2-0.8954315-2-2V4c0-1.1045694,0.8954306-2,2-2h22.0000134L42,14v30C42,45.1045685,41.1045685,46,40,46z" />
            <polyline points="30,3 30,14 
				42,14 			" />
        </symbol>
        <symbol id="detail" viewBox="0 0 48 48">
            <path
                d="M40,46H8
				c-1.1045694,0-2-0.8954315-2-2V4c0-1.1045694,0.8954306-2,2-2h22.0000134L42,14v30C42,45.1045685,41.1045685,46,40,46z" />
            <polyline points="30,3 30,14 
				42,14 			" />
        </symbol>
        <symbol viewBox="0 0 18.682 22.5" id="file">
            <g id="file-1" transform="translate(0.75 0.75)">
                <path id="Path_3237" data-name="Path 3237"
                    d="M22.227,23H6.955A.955.955,0,0,1,6,22.045V2.955A.955.955,0,0,1,6.955,2h10.5l5.727,5.727V22.045A.955.955,0,0,1,22.227,23Z"
                    transform="translate(-6 -2)" />
                <path id="Path_3238" data-name="Path 3238" d="M30,3V8.25h5.727" transform="translate(-18.545 -2.523)" />
                <line id="Line_1170" data-name="Line 1170" x2="5.727" transform="translate(2.864 7.159)" />
                <line id="Line_1171" data-name="Line 1171" x2="11.455" transform="translate(2.864 10.023)" />
                <line id="Line_1172" data-name="Line 1172" x2="11.455" transform="translate(2.864 12.886)" />
                <line id="Line_1173" data-name="Line 1173" x2="11.455" transform="translate(2.864 15.75)" />
            </g>
        </symbol>
        <symbol viewBox="0 0 48 48" id="file-add">
            <path d="M30,46H8 c-1.1045694,0-2-0.8954315-2-2V4c0-1.1045694,0.8954306-2,2-2h22.0000134L42,14v13" />
            <line x1="12" y1="17" x2="24" y2="17" />
            <line x1="12" y1="23" x2="35" y2="23" />
            <line x1="12" y1="29" x2="26" y2="29" />
            <line x1="12" y1="35" x2="23" y2="35" />
            <polyline points="30,3 30,14  42,14" />
            <circle cx="35" cy="36" r="11" />
            <line x1="35" y1="30" x2="35" y2="42" />
            <line x1="41" y1="36" x2="29" y2="36" />
        </symbol>
        <symbol id="piglet-dollar" viewBox="0 0 48 48">

            <circle cx="14.5" cy="19.5" r="1.5" />
            <path d="M41.8485107,23.5
		C41.8485107,14.9395752,33.8574219,8,24,8c-2.6502419,0-5.1643047,0.5029659-7.4246769,1.4034185
		c-0.5445251,0.2169199-1.1434412-0.023921-1.4743776-0.5077019c-1.1136312-1.6279602-3.0459032-2.3432178-4.4378529-2.6558847
		C9.8367157,6.0542068,9.0729408,6.7292576,9.1572161,7.5720224l0.6034613,6.0347281
		c0.0328903,0.3289127-0.0735645,0.6529541-0.2836418,0.9081659c-1.0218573,1.2414017-1.8441243,2.6148252-2.4111986,4.0913992
		c-0.0974517,0.2537498-0.2700186,0.4703465-0.5021167,0.611824l-2.9112575,1.7745743
		C2.6261981,21.6182804,2,22.7333469,2,23.9352417v1.6185303C2,27.4570713,3.5429287,29,5.446228,29h1.1028442
		c0.4767332,0.0000019,0.8980689,0.2804451,1.1126895,0.7061348c1.0199513,2.0230312,2.5225701,3.8190689,4.3804078,5.2805176
		C13.8930025,36.4425888,15,38.6451416,15,40.9999962V41c0,0.5522842,0.4477148,1,1,1h2c0.5522842,0,1-0.4477158,1-1v-2.6273193
		C21,38.7770386,22.2588501,39,24,39c2.4889526,0,5-0.4449463,7-1.2441406V41c0,0.5522842,0.4477158,1,1,1h2
		c0.5522842,0,1-0.4477158,1-1v-2.2494087c0-1.7790642,0.7401695-3.4773788,2.0435028-4.6883278
		C40.0211182,31.295702,41.8485107,27.5861244,41.8485107,23.5z" />
            <path d="M42,23
		c0,0,4.8260307,1.4209824,3,6s-5.3379135,0.6065102-3-1c1.4475441-0.994688,6.1620178,2.192564,0,7" />
            <path
                d="M26.9114513,19.2297726
		c0,0-0.8583012-1.7819386-3.009737-1.8058434c-3.3859558-0.0376205-4.8387146,4.7536469-0.8502445,6.1246834
		c6.1798363,2.1243191,3.9451637,7.0902596,0.9104214,7.1178474c-2.5380421,0.0230732-3.5663185-1.7278595-3.6773663-1.9777222" />

            <line x1="23.7859116" y1="15.2650852" x2="23.8642025" y2="32.8902931" />
        </symbol>
        <symbol id="piglet-out" viewBox="0 0 48 48">
            <path
                d="M17.4,9.1c-0.3,0.1-0.6,0.2-0.8,0.3c-0.5,0.2-1.1,0-1.5-0.5c-1.1-1.6-3-2.3-4.4-2.7C9.8,6.1,9.1,6.7,9.2,7.6	l0.6,6c0,0.3-0.1,0.7-0.3,0.9c-1,1.2-1.8,2.6-2.4,4.1c-0.1,0.3-0.3,0.5-0.5,0.6L3.7,21c-1,0.6-1.7,1.7-1.7,2.9v1.6	C2,27.5,3.5,29,5.4,29h1.1c0.5,0,0.9,0.3,1.1,0.7c1,2,2.5,3.8,4.4,5.3c1.9,1.5,3,3.7,3,6v0c0,0.6,0.4,1,1,1h2c0.6,0,1-0.4,1-1v-2.6	c2,0.4,3.3,0.6,5,0.6c2.5,0,5-0.4,7-1.2V41c0,0.6,0.4,1,1,1h2c0.6,0,1-0.4,1-1v-2.2c0-1.8,0.7-3.5,2-4.7c3-2.8,4.8-6.5,4.8-10.6	c0-6.5-4.6-12.1-11.2-14.4" />
            <path d="M42,23c0,0,4.8,1.4,3,6s-5.3,0.6-3-1c1.4-1,6.2,2.2,0,7" />
            <polyline points="16.6,20.1 23.7,13 30.8,20.1 " />
            <line x1="23.7" x2="23.7" y1="15.4" y2="28.5" />
        </symbol>
        <symbol id="piglet-in" viewBox="0 0 48 48">
            <path
                d="M17.4,9.1c-0.3,0.1-0.6,0.2-0.8,0.3c-0.5,0.2-1.1,0-1.5-0.5c-1.1-1.6-3-2.3-4.4-2.7C9.8,6.1,9.1,6.7,9.2,7.6	l0.6,6c0,0.3-0.1,0.7-0.3,0.9c-1,1.2-1.8,2.6-2.4,4.1c-0.1,0.3-0.3,0.5-0.5,0.6L3.7,21c-1,0.6-1.7,1.7-1.7,2.9v1.6	C2,27.5,3.5,29,5.4,29h1.1c0.5,0,0.9,0.3,1.1,0.7c1,2,2.5,3.8,4.4,5.3c1.9,1.5,3,3.7,3,6v0c0,0.6,0.4,1,1,1h2c0.6,0,1-0.4,1-1v-2.6	c2,0.4,3.3,0.6,5,0.6c2.5,0,5-0.4,7-1.2V41c0,0.6,0.4,1,1,1h2c0.6,0,1-0.4,1-1v-2.2c0-1.8,0.7-3.5,2-4.7c3-2.8,4.8-6.5,4.8-10.6	c0-6.5-4.6-12.1-11.2-14.4" />
            <path d="M42,23c0,0,4.8,1.4,3,6s-5.3,0.6-3-1c1.4-1,6.2,2.2,0,7" />
            <polyline points="30.8,21.9 23.7,29 16.6,21.9 " />
            <line x1="23.7" x2="23.7" y1="26.6" y2="8" />
        </symbol>
        <symbol id="gear" viewBox="0 0 48 48">
            <path d="
			M44.4,20.7l-2.8-0.5c-0.5-2.1-1.3-4.2-2.5-5.9l1.6-2.3c0.6-0.8,0.5-1.9-0.2-2.6l-0.9-0.9l-0.9-0.9c-0.7-0.7-1.8-0.8-2.6-0.2
			l-2.3,1.6c-1.8-1.2-3.8-2-5.9-2.5l-0.5-2.8c-0.2-1-1-1.6-2-1.6H24h-1.3c-1,0-1.8,0.7-2,1.6l-0.5,2.8C18,6.9,16,7.7,14.3,8.9
			l-2.3-1.6c-0.8-0.6-1.9-0.5-2.6,0.2L8.4,8.4L7.5,9.4c-0.7,0.7-0.8,1.8-0.2,2.6l1.6,2.3c-1.2,1.8-2,3.8-2.5,5.9l-2.8,0.5
			c-1,0.2-1.6,1-1.6,2V24v1.3c0,1,0.7,1.8,1.6,2l2.8,0.5C6.9,30,7.7,32,8.9,33.7l-1.6,2.3c-0.6,0.8-0.5,1.9,0.2,2.6l0.9,0.9l0.9,0.9
			c0.7,0.7,1.8,0.8,2.6,0.2l2.3-1.6c1.8,1.2,3.8,2,5.9,2.5l0.5,2.8c0.2,1,1,1.6,2,1.6H24h1.3c1,0,1.8-0.7,2-1.6l0.5-2.8
			c2.1-0.5,4.2-1.3,5.9-2.5l2.3,1.6c0.8,0.6,1.9,0.5,2.6-0.2l0.9-0.9l0.9-0.9c0.7-0.7,0.8-1.8,0.2-2.6l-1.6-2.3
			c1.2-1.8,2-3.8,2.5-5.9l2.8-0.5c1-0.2,1.6-1,1.6-2V24v-1.3C46,21.7,45.3,20.9,44.4,20.7z" />
            <circle cx="24" cy="24" r="8" />
        </symbol>
        <symbol id="star" viewBox="0 0 48 48">
            <path d="M24.9510574,4.0194278
			l3.9931278,12.2895889C29.0780602,16.7210388,29.4620171,17,29.8952427,17H42.802742
			c0.9701309,0,1.3719711,1.2425823,0.5855446,1.8106384l-10.4341469,7.5368614
			c-0.3521767,0.254385-0.4998169,0.7070522-0.3653488,1.1201591l3.9884644,12.2532158
			c0.3000298,0.9217415-0.7554131,1.6884384-1.539238,1.1181297l-10.4503136-7.603611
			c-0.3504143-0.2549629-0.8251705-0.2552071-1.1758499-0.0006104l-10.4504232,7.5871696
			c-0.7841768,0.5693245-1.838623-0.1978531-1.5382566-1.1191788l3.9876451-12.2314434
			c0.1346922-0.4131451-0.012846-0.8659878-0.3650637-1.1204967L4.6106577,18.8105373
			C3.8244004,18.2423954,4.2263002,17,5.1963439,17h12.9084129c0.4332256,0,0.8171825-0.2789612,0.9510574-0.6909828
			l3.9931278-12.2895889C23.3482952,3.0981169,24.6517048,3.0981169,24.9510574,4.0194278z" />
        </symbol>
        <symbol id="security" viewBox="0 0 26 28">
            <path
                d="M13,0C5.82,0,0,0.67,0,8.4C0,20.999,11.7,28,13,28s13-7.001,13-19.6C26,0.67,20.18,0,13,0z M13,25.846V14H2.684		C2.254,12.544,2,10.964,2,9.262c0-6.541,4.925-7.107,11-7.107V14h10.316C21.061,21.661,13.924,25.846,13,25.846z" />
        </symbol>
        <symbol id="simple-arrow-right" viewBox="0 0 100 100">
            <polyline points="41.5,67 58.5,50 41.5,33" />
        </symbol>
        <symbol id="envelope" viewBox="0 0 48 48">
            <path d="M43,42H5c-1.1,0-2-0.9-2-2 V11c0-1.1,0.9-2,2-2h38c1.1,0,2,0.9,2,2v29C45,41.1,44.1,42,43,42z" />
            <path d="M3,9l18.9,18c1.2,1.1,3,1.1,4.1,0L45,9" />
            <line x1="3" x2="21" y1="42" y2="26" />
            <line x1="45" x2="27" y1="42" y2="26" />
        </symbol>
        <symbol id="envelope-fill" viewBox="0 0 30.859 22.895">
            <path
                d="M10.123,12.069c0.399-0.372,0.4-0.981,0.002-1.354L0.479,1.68C0.174,2.193,0,2.793,0,3.432v16.023		c0,0.6,0.152,1.164,0.424,1.656L10.123,12.069z" />
            <path
                d="M19.684,13.15c-0.398-0.373-1.051-0.374-1.451-0.001l-2.035,1.897c-0.398,0.372-1.052,0.372-1.449-0.001l-2.128-1.994		c-0.397-0.373-1.05-0.373-1.45-0.002l-9.814,9.146c0.571,0.438,1.283,0.699,2.057,0.699h23.041h0.992		c0.732,0,1.41-0.236,1.965-0.631L19.684,13.15z" />
            <path
                d="M30.436,1.776l-9.701,9.043c-0.398,0.371-0.4,0.98-0.002,1.354l9.647,9.036c0.305-0.516,0.479-1.115,0.479-1.754V3.432		C30.859,2.833,30.705,2.268,30.436,1.776z" />
            <path
                d="M14.748,13.087c0.399,0.373,1.051,0.374,1.451,0.002L29.5,0.693C28.93,0.258,28.219,0,27.445,0H3.412		c-0.733,0-1.41,0.232-1.967,0.627L14.748,13.087z" />
        </symbol>
        <symbol id="envelope-open" viewBox="0 0 27.021 30.612">
            <path fill="currentColor"
                d="M16.3,19h-5.4c-0.3,0-0.6-0.1-0.8-0.3l-7.2-6.3c-0.3-0.2-0.4-0.6-0.4-1v-7c0-1.5,1.3-2.8,2.8-2.8h16.6		c1.5,0,2.8,1.3,2.8,2.8v6.7c0,0.4-0.1,0.7-0.4,0.9l-7,6.5C17,18.9,16.6,19,16.3,19z" />
            <path d="M8.8,21.2c0.4-0.4,0.4-1,0-1.4l-8.4-7.8C0.2,12.5,0,13,0,13.6v14c0,0.5,0.1,1,0.4,1.5L8.8,21.2z" />
            <path
                d="M16.5,21.3c-0.4-0.4-1.2-0.7-1.7-0.7h-2.5c-0.5,0-1.3,0.3-1.7,0.7L1.2,30c0.5,0.4,1.1,0.6,1.8,0.6h21		c0.6,0,1.2-0.2,1.7-0.5L16.5,21.3z" />
            <path
                d="M26.6,12.1L18.3,20c-0.4,0.4-0.4,1,0,1.4l8.4,7.8c0.3-0.4,0.4-1,0.4-1.5v-14C27,13.1,26.9,12.6,26.6,12.1z" />
        </symbol>
        <symbol id="arrow-down" preserveAspectRatio="xMaxYMid " viewBox="0 0 48 48">
            <polyline points="36,18 24,30 12,18 " />
        </symbol>
        <symbol id="chevron-down" viewBox="0 0 48 48">
            <circle cx="24" cy="24" r="22.5" stroke="currentColor" />
            <polyline points="36,18 24,30 12,18 " />
        </symbol>
        <symbol id="printer" class="lightblue" viewBox="0 0 48 48">
            <circle cx="8" />
            <path d="M39,36h7V18c0-2.2091389-1.7908592-4-4-4H6c-2.2091391,0-4,1.7908611-4,4v18h7" />
            <rect width="30" height="19" x="9" y="27" />
            <polyline points="9,13 9,3 39,3 39,13" />
            <line x1="7" x2="42" y1="27" y2="27" />
            <line x1="14" x2="33" y1="32" y2="32" />
            <line x1="14" x2="33" y1="36" y2="36" />
            <line x1="14" x2="33" y1="40" y2="40" />
        </symbol>
        <symbol id="sms" viewBox="0 0 22.38 24.25">
            <g id="message-m">
                <path
                    d="M21.38,9.63c0,4.13-3.45,7.59-8,8.43-.69.12-5.41,5.19-6.15,5.19-1.58,0,.93-5.3-.4-5.84C3.37,16,1,13.06,1,9.63,1,4.86,5.56,1,11.19,1S21.38,4.86,21.38,9.63Z" />
                <circle cx="6.44" cy="9.33" r="1" />
                <circle cx="11.44" cy="9.33" r="1" />
                <circle cx="16.44" cy="9.33" r="1" />
            </g>
        </symbol>
        <symbol id="sarrow" viewBox="0 0 48 48">
            <g id="s-arw">
                <path
                    d="M6,9h28.5000076C38.6421394,9,42,12.3578606,42,16.4999924v0.0000153C42,20.6421394,38.6421394,24,34.5000076,24H13.4999924C9.3578606,24,6,27.3578606,6,31.4999924v0.0000153C6,35.6421394,9.3578606,39,13.4999924,39H42" />
                <polyline points="11.9040318,15.9040318 5,9 11.9040318,2.0959687" />
                <polyline points="35.0959702,32 42,38.9040337 35.0959702,45.8080635" />
            </g>
        </symbol>
        <symbol id="user" viewBox="0 0 48 48">
            <path
                d="M23.6666679,28.4822655c5.1118164,0,8.50877-6.7998562,9.0045242-8.5222263 c0.0362549-0.1251526,0.8010826-0.5136089,0.865078-0.6267662c2.7670708-4.8967609-0.2575378-5.4533072-0.2575378-5.4533072 s0.1417236-2.5803061-0.5002403-5.0045166c0,0-1.6209316-6.0166273-9.111824-6.0166273s-9.1118231,6.0166273-9.1118231,6.0166273 c-0.641964,2.4242105-0.5002413,5.0045166-0.5002413,5.0045166s-3.0246096,0.5565462-0.2575359,5.4533072 c0.0639944,0.1131573,0.8288212,0.5016136,0.8650761,0.6267662C15.1578989,21.6824093,18.5548515,28.4822655,23.6666679,28.4822655 z" />
            <path
                d=" M28.3596325,27.0204525c0,0,1.948597,1.9302864,5.6576519,3.1010551c5.2552795,1.6584682,9.7573586,4.7805805,10.1493835,13.020277 c0,0-8.5051994,1.8310432-20.5,1.8310432s-20.5-1.8310432-20.5-1.8310432 c0.3920448-8.2396965,4.894105-11.3618088,10.1493845-13.020277c3.709054-1.1707687,5.6576509-3.1010551,5.6576509-3.1010551" />
        </symbol>
        <symbol id="call" viewBox="0 0 48 48">
            <path
                d="M44.301548,19.0324593 c2.1602173-5.0219517,0.8455734-10.8719664-3.0950928-14.6611176c-0.8551483-0.8222678-1.4886818-1.423099-1.4886818-1.423099 c-1.7698975-1.7698975-4.6394043-1.7698975-6.4093018,0l-2.7830811,2.7830811 c-1.7698803,1.7698798-1.7698803,4.6394215,0,6.4093018l0.9068966,0.9068966 c2.1743679,2.174366,3.0298023,5.3713932,2.1465435,8.3168278c-2.0833855,6.9475269-7.7182655,10.2208538-11.9738579,11.7357712 c-2.9236641,1.0407753-6.1789799,0.3881569-8.4835987-1.6902485l-0.9807491-0.8844814 c-1.7698975-1.7698975-4.6394043-1.7698975-6.4093018,0l-2.7830813,2.7830811 c-1.7698797,1.7698784-1.7698798,4.6394234-0.0000002,6.4093018l1.4967251,1.496727 c3.8993554,3.899353,9.8203888,5.0579262,14.8360291,2.7659187C24.1313705,41.7639313,29.4892406,37.8801422,34.3693848,33 C38.8669624,28.5024223,42.3476868,23.5746841,44.301548,19.0324593z" />
            <line x1="14" x2="5.5" y1="33" y2="41.5" />
            <line x1="41" x2="32.5" y1="5" y2="13.5" />
        </symbol>
        <symbol id="call-mobile" viewBox="0 0 48 48">
            <line x1="10" x2="39" y1="8" y2="8" />
            <line x1="39" x2="10" y1="37" y2="37" />
            <path
                d="		M35,47H13c-2.2091389,0-4-1.7908592-4-4V5c0-2.2091391,1.7908611-4,4-4h22c2.2091408,0,4,1.7908609,4,4v38		C39,45.2091408,37.2091408,47,35,47z" />
            <circle cx="24" cy="42" r="1" />
        </symbol>
        <symbol id="bubbles" viewBox="0 0 48 48">
            <path
                d="M40,19			c3,2.8,4.9,6.9,4.9,11.4c0,2.3-0.5,4.5-1.4,6.5c0,0-0.8,4.2,3.5,8.5c0,0-7.9,1.7-10.7-1c-2.1,1-4.4,1.6-6.9,1.6			c-5.1,0-9.7-2.5-12.5-6.3" />
            <path
                d="M1,35.6			c0,0,8.3,1.7,11.3-1c2.2,1.1,4.6,1.7,7.3,1.7c9,0,16.4-7.4,16.4-16.4c0-9.1-7.3-16.4-16.4-16.4c-9,0-16.4,7.4-16.4,16.4			c0,2.4,0.5,4.8,1.5,6.8C4.7,26.7,5.6,31.1,1,35.6z" />
        </symbol>
        <symbol id="globe" viewBox="0 0 48 48">
            <circle cx="24" cy="24" r="22" />
            <line x1="24" x2="24" y1="2" y2="46" />
            <line x1="43" x2="5" y1="14" y2="14" />
            <line x1="43" x2="5" y1="34" y2="34" />
            <path
                d=" M23.110445,1.9996911C30.3425026,6.6477661,35.1333351,14.7644043,35.1333351,24S30.3425026,41.3522339,23.110445,46.000309" />
            <path
                d=" M24.1333332,46.000309C16.9012756,41.3522339,12.1104441,33.2355957,12.1104441,24s4.7908316-17.3522339,12.0228891-22.000309" />
        </symbol>
        <symbol id="door" viewBox="0 0 48 48">
            <path d="M12,45V5c0-1.1045694,0.8954306-2,2-2h20c1.1045685,0,2,0.8954306,2,2v40" />
            <line x1="6" x2="42" y1="46" y2="46" />
            <line x1="28" x2="28" y1="25" y2="29" />
            <path d="M32,46V10.4341822c0-1.4186611-0.9937382-2.6433902-2.3819695-2.9356494L13,4" />
        </symbol>
        <symbol id="block" viewBox="0 0 19.5 19.5">
            <circle cx="9.8" cy="9.8" r="7.8" />
            <line x1="15.2" x2="4.3" y1="4.3" y2="15.2" />
        </symbol>
        <symbol id="locate" viewBox="0 0 48 48">
            <path d=" M41,20c0,13-17,26-17,26S7,33.0625,7,20c0-9.3888407,7.6111593-17,17-17S41,10.6111593,41,20z" />
            <circle cx="24" cy="20" r="7" />
        </symbol>
        <symbol id="limit" viewBox="0 0 48 48">
            <polyline points="18.1,19.8 37.3,19.8 37.3,39 " />
            <line x1="12.7" x2="37.3" y1="44.4" y2="19.8" />
            <rect width="34.8" height="9.6" x="7" y="3.9" />
        </symbol>
        <symbol id="pencil" viewBox="0 0 48 48">
            <path d="
                        M18.8180199,42.4099045L3.2616704,45.2383308l2.8284271-15.5563507L32.9601555,2.8119228
                        c0.7810478-0.7810485,2.0473785-0.7810485,2.8284264,0l9.8994942,9.8994951c0.7810516,0.7810478,0.7810516,2.0473785,0,2.8284264
                        L18.8180199,42.4099045z" />
            <line x1="38.6170082" x2="11.0398445" y1="5.6403499" y2="33.217514" />
            <line x1="42.8596497" x2="15.282486" y1="9.8829908" y2="37.4601555" />
            <line x1="6.0900974" x2="18.8180199" y1="29.6819801" y2="42.4099045" />
            <line x1="4.6758838" x2="10.3327379" y1="38.167263" y2="43.8241158" />
        </symbol>
        <symbol id="pencil-fill" viewBox="0 0 26.872 27.009">
            <path
                d="M26.122,3.334l-2.609-2.61c-0.967-0.966-2.653-0.966-3.619,0.001l-0.886,0.887l6.228,6.228l0.886-0.886		c0.484-0.482,0.75-1.126,0.751-1.809C26.872,4.46,26.605,3.817,26.122,3.334z" />
            <path
                d="M4.004,24.358l-1.398-1.399l0.807-2.454l-1.391-1.392l-1.945,5.919c-0.18,0.544-0.038,1.135,0.377,1.548		c0.283,0.276,0.656,0.429,1.051,0.429c0.173,0,0.344-0.03,0.502-0.087l5.786-2.037l-1.375-1.376L4.004,24.358z" />
            <path
                d="M20.258,5.345L8.059,17.543C7.888,17.715,7.663,17.8,7.438,17.8c-0.224,0-0.449-0.085-0.62-0.257		c-0.343-0.343-0.343-0.897,0-1.24L19.017,4.104l-1.251-1.25L3.004,17.614l0.619,0.62l4.989,4.987l0.62,0.62L23.994,9.08		L20.258,5.345z" />
        </symbol>
        <symbol id="layers-fill" viewBox="0 0 29.875 23.795">
            <path
                d="M29.438,15.166l-4.102-2.146l-2.148,1.124l3.352,1.754l-10.99,5.746c-0.188,0.098-0.398,0.15-0.609,0.15		s-0.423-0.053-0.61-0.15L3.336,15.897l3.353-1.753L4.54,13.021l-4.102,2.146C0.17,15.307,0,15.59,0,15.898s0.17,0.591,0.438,0.731		l12.998,6.795c0.472,0.246,0.987,0.37,1.503,0.37c0.515,0,1.03-0.124,1.502-0.37l12.996-6.795c0.269-0.141,0.438-0.423,0.438-0.731		S29.706,15.307,29.438,15.166z" />
            <path
                d="M0.438,8.63l12.998,6.795c0.472,0.246,0.987,0.37,1.503,0.37c0.515,0,1.03-0.124,1.502-0.37L29.438,8.63		c0.269-0.141,0.438-0.423,0.438-0.731s-0.169-0.592-0.438-0.732L16.442,0.37C15.97,0.123,15.454,0,14.938,0		s-1.031,0.123-1.502,0.369L0.438,7.166C0.17,7.307,0,7.59,0,7.898S0.17,8.489,0.438,8.63z" />
        </symbol>
        <symbol id="rename" viewBox="0 0 48 48">
            <line x1="30" x2="18" y1="30" y2="30" />
            <path d="M14,1h2c4.4182777,0,8,3.5817218,8,8v30c0,4.4182777-3.5817223,8-8,8h-2" />
            <path d="M34,47h-2c-4.4182777,0-8-3.5817223-8-8V9c0-4.4182782,3.5817223-8,8-8h2" />
            <g>
                <g>
                    <polyline points="42,33.5 42,36 39.5,36" />
                    <line x1="35.5" x2="10.5" y1="36" y2="36" />
                    <polyline points="8.5,36 6,36 6,33.5" />
                    <line x1="6" x2="6" y1="29.5" y2="22.5" />
                    <polyline points="6,20.5 6,18 8.5,18" />
                    <line x1="12.5" x2="37.5" y1="18" y2="18" />
                    <polyline points="39.5,18 42,18 42,20.5" />
                    <line x1="42" x2="42" y1="24.5" y2="31.5" />
                </g>
            </g>
        </symbol>
        <symbol id="locker" viewBox="0 0 48 48">
            <circle cx="24" cy="24" r="22" />
            <circle cx="24" cy="24" r="10.5" />
            <circle cx="30" cy="24" r="1" />
            <line x1="24" x2="24" y1="6" y2="8" />
            <line x1="24" x2="24" y1="40" y2="42" />
            <line x1="42" x2="40" y1="24" y2="24" />
            <line x1="8" x2="6" y1="24" y2="24" />
            <line x1="36.7279205" x2="35.3137093" y1="11.2720776" y2="12.6862917" />
            <line x1="12.6862917" x2="11.2720776" y1="35.3137093" y2="36.7279205" />
            <line x1="36.7279205" x2="35.3137093" y1="36.7279205" y2="35.3137093" />
            <line x1="12.6862917" x2="11.2720776" y1="12.6862917" y2="11.2720776" />
        </symbol>
        <symbol id="card-in" viewBox="0 0 48 48">
            <path d="M36,15h5c2.2,0,4,1.8,4,4v23c0,2.2-1.8,4-4,4H6c-2.2,0-4-1.8-4-4V19c0-2.2,1.8-4,4-4h6" />
            <polyline points="33.1,22.3 24,31.3 14.9,22.3 	" />
            <line x1="24" x2="24" y1="7" y2="31.3" />
        </symbol>
        <symbol id="arrow" viewBox="0 0 100 100">
            <polyline points="41.5,67 58.5,50 41.5,33" />
        </symbol>
        <symbol id="renew" viewBox="0 0 48 48">
            <path
                d="M29.25,44C36.981987,44,45,36.0916634,45,27.53125s-6.268013-15.5-14-15.5S18,19,18,24h5L12,36L2,24h5C7,13,15.9543047,4,27,4 s20,8.9543047,20,20s-8.9543037,20-20,20" />
        </symbol>
        <symbol id="reload" viewBox="0 0 48 48">
            <path
                d="		M24.0013313,41.5239067c9.6782036,0,17.5239067-7.8457603,17.5239067-17.5239067		c0-9.6782026-7.8457031-17.5239067-17.5239067-17.5239067c-9.358429,0-16.9810829,7.3416743-17.4760933,16.5766678" />
            <polyline points="		12.3606386,19.1803188 7,24 2,19.1803188 	" />
        </symbol>
        <symbol id="card-reload" viewBox="0 0 48 48">
            <path
                d="M24,40H6 c-2.2091391,0-4-1.7908592-4-4V13c0-2.2091389,1.7908609-4,4-4h35c2.2091408,0,4,1.7908611,4,4v14" />
            <line x1="2" x2="45" y1="17" y2="17" />
            <line x1="2" x2="45" y1="24" y2="24" />
            <line x1="26" x2="26" y1="20" y2="21" />
            <line x1="30" x2="30" y1="20" y2="21" />
            <line x1="34" x2="34" y1="20" y2="21" />
            <line x1="38" x2="38" y1="20" y2="21" />
            <path
                d="M31.2625084,33.9996719 c1.4087448-1.9470367,3.6998177-3.2137032,6.2869148-3.2137032c4.2830276,0,7.7547188,3.4716759,7.7547188,7.754715 c0,4.2830162-3.4716911,7.7547188-7.7547188,7.7547188c-3.4255867,0-6.3321686-2.2208061-7.3586464-5.3012924" />
            <polyline points="28,44 30,40 34,41 " />
        </symbol>
        <symbol id="lock" viewBox="0 0 48 48">
            <path d="M36.9,44.8H12c-3.4,0-6.2-2.8-6.2-6.2V19.9h37.4v18.7C43.2,42,40.4,44.8,36.9,44.8z" />
            <path d="M11.9,16c0-7.1,5.7-12.8,12.8-12.8S37.5,8.9,37.5,16" />
        </symbol>
        <symbol id="rotate" viewBox="0 0 48 48">
            <path
                d="		M29.25,44C36.981987,44,45,36.0916634,45,27.53125s-6.268013-15.5-14-15.5S18,19,18,24h5L12,36L2,24h5C7,13,15.9543047,4,27,4		s20,8.9543047,20,20s-8.9543037,20-20,20" />
        </symbol>
        <symbol id="delete-fill" viewBox="0 0 19.143 19.144">
            <path d="M13.106,9.571l5.304-5.303c0.47-0.469,0.732-1.104,0.732-1.768S18.88,1.202,18.41,0.732c-0.977-0.977-2.559-0.977-3.535,0
                L9.571,6.036L4.269,0.732C3.8,0.264,3.164,0.001,2.501,0.001S1.202,0.264,0.732,0.733C0.264,1.202,0,1.838,0,2.501
                S0.264,3.8,0.732,4.269l5.304,5.303l-5.304,5.304c-0.977,0.977-0.977,2.559,0.001,3.536c0.469,0.469,1.104,0.732,1.768,0.732
                S3.8,18.88,4.269,18.411l5.303-5.304l5.304,5.304c0.977,0.977,2.559,0.977,3.535,0c0.47-0.47,0.733-1.105,0.732-1.769
                c0-0.663-0.263-1.299-0.731-1.768L13.106,9.571z" />
        </symbol>
        <symbol id="trash" viewBox="0 0 48 48">
            <path d="M40,8l-3.7,35.3 c-0.2,1.5-1.4,2.7-3,2.7H14.7c-1.5,0-2.8-1.2-3-2.7L8,8" />
            <line x1="24" x2="24" y1="14" y2="40" />
            <line x1="16" x2="18" y1="14" y2="40" />
            <line x1="32" x2="30" y1="14" y2="40" />
            <line x1="6" x2="42" y1="8" y2="8" />
            <path d="M16,7V5c0-1.1,0.9-2,2-2 h12c1.1,0,2,0.9,2,2v2" />
        </symbol>
        <symbol id="callcenter" viewBox="0 0 48 48">
            <path
                d="M28.68,27.1a14.91,14.91,0,0,0,5.64,3.09c5.24,1.65,9.73,4.77,10.12,13A106.16,106.16,0,0,1,24,45,107,107,0,0,1,3.56,43.18C4,35,8.44,31.84,13.68,30.19a14.91,14.91,0,0,0,5.64-3.09" />
            <path d="M35.3,15.11s4,.91,4,3c-.07,3.35-9.31,3.66-15,4" />
            <circle cx="24.33" cy="22.09" r="2" />
            <path
                d="M34.56,13.48c0,6.5-5.4,14.14-11.09,14.14s-10.91-7.5-10.91-14.14C12.56,7.78,17.77,3,23.47,3S34.56,7.78,34.56,13.48Z" />
            <path d="M12.56,12.48s13.27-.11,14-6c0,0,1.59,5.54,7,6" />
        </symbol>
        <symbol id="gear-fill" viewBox="0 0 48 48">
            <path
                d="M42.68,27.07a1.88,1.88,0,0,0,1.77-2V22.76a1.72,1.72,0,0,0-1.62-1.82.38.38,0,0,0-.15,0H41.33a20.59,20.59,0,0,0-2.8-6.88l1.65-1.67a2.09,2.09,0,0,0,0-3L38.86,8.12a2.07,2.07,0,0,0-2.93,0l-.09.09L34.56,9.67a18.75,18.75,0,0,0-6.47-2.84V4.45a1.93,1.93,0,0,0-1.95-1.92H24a1.93,1.93,0,0,0-2,1.85V6.83a12.22,12.22,0,0,0-7.22,2.83L12.92,8a2.18,2.18,0,0,0-3,0L8.45,9.43a2.08,2.08,0,0,0-.63,1.47,2,2,0,0,0,.6,1.46l1.63,1.69a20.79,20.79,0,0,0-2.83,6.89H5.66a2,2,0,0,0-2.11,1.95v2a2.18,2.18,0,0,0,2.11,2.16H7.23a20.32,20.32,0,0,0,2.84,6.77L8.4,35.49a2.05,2.05,0,0,0,0,2.9h0l1.49,1.48a2.08,2.08,0,0,0,2.85.08l2-1.83A12.1,12.1,0,0,0,22,40.93v2.44a2.1,2.1,0,0,0,2,2.1h2.1a2.1,2.1,0,0,0,2-2.1V40.93a18.77,18.77,0,0,0,6.43-2.81L36,39.8a1.84,1.84,0,0,0,1.37.61,2,2,0,0,0,1.42-.61l1.39-1.41a2.08,2.08,0,0,0,0-2.93L38.5,33.83a20.23,20.23,0,0,0,2.82-6.76Zm-18.4,6a9.16,9.16,0,1,1,9.15-9.16A9.16,9.16,0,0,1,24.28,33Z" />
        </symbol>
        <symbol id="wizz">
            <path id="Path_1675" fill="white" stroke="transparent" d="M33.7,9.1l-5.2,6.8c-0.1,0.2-0.1,0.4-0.1,0.6c0.1,0.2,0.3,0.3,0.5,0.3h4.6l5.2-6.8		c0.1-0.2,0.1-0.3,0.1-0.5c-0.1-0.2-0.3-0.3-0.5-0.3L33.7,9.1L33.7,9.1z M18.9,5.8L19,5.7h2.7l0.4-2.2c0-0.1,0.1-0.1,0.1-0.1h2.5
		h0.1v0.1l-0.3,1.4h11.8c0.1,0,0.1,0,0.1,0.1v0.1l-1.1,1.4h8.8c0.1,0,0.1,0,0.1,0.1v0.1l-7.3,9.6c-0.1,0.1-0.1,0.4,0,0.5
		s0.2,0.2,0.4,0.3h5.1c0.1,0,0.1,0,0.1,0.1v0.1l-0.1,2.2c0,0.1-0.1,0.1-0.1,0.1H22.5c0,0.1,0,0.2,0,0.3c0,1-0.8,1.8-1.8,1.8
		s-1.8-0.8-1.8-1.8s0.8-1.8,1.8-1.8c0.7,0,1.3,0.4,1.6,0.9l8-10.4c0.1-0.2,0.1-0.4,0-0.5c-0.1-0.2-0.3-0.2-0.5-0.2h-5.6L22.8,16
		c0,0.1-0.1,0.1-0.1,0.1h-2.6c-0.1,0-0.1,0-0.1-0.1c0-0.1,0-0.1,0-0.1l1.5-8.8l-6.3,12.4c-0.1,0.1-0.2,0.2-0.3,0.2h-2.2
		c-0.1,0-0.1-0.1-0.1-0.1l-0.6-9l-4.6,8.9c-0.1,0-0.2,0.1-0.3,0.1H5c-0.1,0-0.1-0.1-0.1-0.1L3.4,5.9V5.8h0.1h2.9
		c0.1,0,0.1,0.1,0.1,0.2l0.4,8.9l4.4-9l0.1-0.1h2.7c0.1,0,0.1,0.1,0.1,0.1l0.4,8.9L18.9,5.8z" />
            <path id="Path_1676" fill="url(#wizzgrad)" stroke="url(#wizzgrad)" d="M34,9.7h4.1L33.2,16h-4.1L34,9.7z M33.7,9.1l-5.2,6.8c-0.1,0.2-0.1,0.4-0.1,0.6
		c0.1,0.2,0.3,0.3,0.5,0.3h4.6l5.2-6.8c0.1-0.2,0.1-0.3,0.1-0.5c-0.1-0.2-0.3-0.3-0.5-0.3L33.7,9.1L33.7,9.1z M18.9,5.8L19,5.7h2.7
		l0.4-2.2c0-0.1,0.1-0.1,0.1-0.1h2.5h0.1v0.1l-0.3,1.4h11.8c0.1,0,0.1,0,0.1,0.1v0.1l-1.1,1.4h8.8c0.1,0,0.1,0,0.1,0.1v0.1l-7.3,9.6
		c-0.1,0.1-0.1,0.4,0,0.5s0.2,0.2,0.4,0.3h5.1c0.1,0,0.1,0,0.1,0.1v0.1l-0.1,2.2c0,0.1-0.1,0.1-0.1,0.1H22.5c0,0.1,0,0.2,0,0.3
		c0,1-0.8,1.8-1.8,1.8s-1.8-0.8-1.8-1.8s0.8-1.8,1.8-1.8c0.7,0,1.3,0.4,1.6,0.9l8-10.4c0.1-0.2,0.1-0.4,0-0.5
		c-0.1-0.2-0.3-0.2-0.5-0.2h-5.6l-1.4,8.2c0,0.1-0.1,0.1-0.1,0.1h-2.6c-0.1,0-0.1,0-0.1-0.1s0-0.1,0-0.1l1.5-8.8l-6.3,12.4
		c-0.1,0.1-0.2,0.2-0.3,0.2h-2.2c-0.1,0-0.1-0.1-0.1-0.1l-0.5-9.2l-4.6,8.9c-0.2,0.1-0.3,0.2-0.4,0.2H5c-0.1,0-0.1-0.1-0.1-0.1
		L3.4,5.9V5.8h0.1h2.9c0.1,0,0.1,0.1,0.1,0.2l0.4,8.9l4.4-9l0.1-0.1h2.7c0.1,0,0.1,0.1,0.1,0.1l0.4,8.9L18.9,5.8z M22.2,2.7
		c-0.3,0-0.6,0.2-0.6,0.5L21.3,5H19c-0.2,0-0.4,0.1-0.6,0.3l-3.2,6.8l-0.3-6.6c0-0.3-0.3-0.6-0.6-0.6h-2.9c-0.2,0-0.4,0.1-0.6,0.3
		L7.5,12L7.2,5.5c0-0.3-0.3-0.6-0.6-0.6H3.4C3.2,4.9,3.1,5,2.9,5.1C2.8,5.2,2.7,5.4,2.7,5.6l1.4,13.9c0,0.3,0.3,0.6,0.6,0.6h2.4
		c0.3,0,0.6-0.2,0.7-0.4l3.7-7l0.5,6.9c0,0.3,0.3,0.6,0.6,0.6h2.5c0.3,0,0.6-0.2,0.7-0.4l4.5-8.7L19.5,16c0,0.2,0,0.4,0.1,0.5
		s0.3,0.2,0.5,0.2h2.8c0.3,0,0.6-0.2,0.6-0.5l1.3-7.8h4.8L22.3,18c-0.4-0.4-1-0.6-1.6-0.6c-1.4,0-2.5,1.1-2.5,2.4
		c0,1.3,1.1,2.5,2.4,2.5c0,0,0,0,0.1,0c1.2,0,2.3-0.9,2.4-2.2h19.3c0.3,0,0.6-0.2,0.6-0.5l0.5-2.5c0-0.2,0-0.4-0.1-0.5
		c-0.1,0-0.3-0.1-0.4-0.1h-5l7.3-9.6c0.1-0.2,0.1-0.4,0-0.6S45,6,44.8,6H37l0.5-0.7c0.1-0.2,0.1-0.4,0-0.6s-0.3-0.3-0.6-0.3H25.4
		l0.2-0.9c0-0.2,0-0.4-0.1-0.5c-0.1-0.2-0.3-0.3-0.5-0.3H22.2z" style="stroke-width:1%" />
        </symbol>
        <symbol id="history" viewBox="0 0 48 48">
            <g>
                <path fill="none" d="
		M8.4253035,32.001709c2.9046268,5.6523819,8.7831163,9.5221977,15.5760279,9.5221977
		c9.6782036,0,17.5239067-7.8457603,17.5239067-17.5239067c0-9.6782026-7.8457031-17.5239067-17.5239067-17.5239067
		c-9.358429,0-16.9810829,7.3416743-17.4760933,16.5766678" />
                <polyline fill="none" points="
		12.3606386,19.1803188 7,24 2,19.1803188 	" />
                <polyline fill="none" points="
		23,14 23,25 34,25 	" />
            </g>
        </symbol>
        <symbol id="message-success-fill" viewBox="0 0 18 18">
            <g style="display:block!important" transform="translate(-116 -275)">
                <path d="M565,266a9,9,0,1,1,9-9A9.01,9.01,0,0,1,565,266Zm0-16a7,7,0,1,0,7,7A7.008,7.008,0,0,0,565,250Z"
                    transform="translate(-440 27)" />
                <path
                    d="M564,261a1,1,0,0,1-.664-.251l-2.933-2.6a1,1,0,1,1,1.327-1.5l2.214,1.963,4.2-4.374a1,1,0,0,1,1.442,1.386l-4.867,5.067A1,1,0,0,1,564,261Z"
                    transform="translate(-440 27)" />
            </g>
        </symbol>
        <symbol id="message-error-fill" viewBox="0 0 18 18">
            <g style="display:block!important" transform="translate(20 -1094)">
                <path d="M469,266a9,9,0,1,1,9-9A9.01,9.01,0,0,1,469,266Zm0-16a7,7,0,1,0,7,7A7.008,7.008,0,0,0,469,250Z"
                    transform="translate(-480 846)" />
                <path d="M466,261a1,1,0,0,1-.707-1.707l6-6a1,1,0,0,1,1.414,1.414l-6,6A1,1,0,0,1,466,261Z"
                    transform="translate(-480 846)" />
                <path d="M472,261a1,1,0,0,1-.707-.293l-6-6a1,1,0,1,1,1.414-1.414l6,6A1,1,0,0,1,472,261Z"
                    transform="translate(-480 846)" />
            </g>
        </symbol>
        <symbol id="message-info-fill" viewBox="0 0 20 20">
            <path d="M10,20A10,10,0,1,1,20,10,10.011,10.011,0,0,1,10,20ZM10,2a8,8,0,1,0,8,8A8.009,8.009,0,0,0,10,2Z" />
            <path d="M11,13V9a1,1,0,0,0-1-1H8v2H9v3H7v2h6V13Z" />
            <circle cx="1.25" cy="1.25" r="1.25" transform="translate(8.75 4.75)" />
        </symbol>
        <symbol id="roll-radius-message">
          <path
                style="fill: #fff"
                d="M1066 1028c-369.31 0-738 6-1108 10 0-277.28 0-554.57 0-1032 369.28 0 738.64 0 1108 0C1066 373.3 1066 650.64 1066 928zM518.18 170.88c0 .01 0 .01 0 .02-63.67 0-127.34.11-191.01-.04-39.22-.09-76.83 7.39-112.51 23.62-67.66 30.76-116.61 81.06-149.69 146.88C28.3 414.28 17.74 491.44 31.75 571.75 44.91 647.23 77.84 712.7 134 765.39c53.43 50.12 116.77 77.34 190.55 77.52 128.84.31 257.68.07 386.52.1 28.56.01 56.42-4.4 83.44-13.53 66.18-22.35 117.42-64.19 155.31-122.18 50.21-76.85 67.54-161.47 55.39-252.11-9.3-69.45-35.99-131.62-82.57-184.27-57.88-65.42-130.02-100.62-218.46-100.11C642.18 171.16 580.18 170.88 518.18 170.88z"
              />
              <path
                d="M518.18,170.88c62,0,124.01,0.29,186.01-0.07c88.44-0.51,160.59,34.7,218.46,100.11c46.58,52.65,73.26,114.82,82.57,184.27   c12.14,90.64-5.19,175.26-55.39,252.11c-37.89,57.99-89.13,99.83-155.31,122.18c-27.03,9.13-54.89,13.53-83.44,13.53   c-128.84-0.02-257.68,0.22-386.52-0.1c-73.78-0.18-137.13-27.4-190.55-77.52C77.84,712.7,44.91,647.23,31.75,571.75   c-14-80.32-3.45-157.47,33.21-230.41c33.08-65.82,82.03-116.11,149.69-146.88c35.68-16.22,73.3-23.71,112.51-23.62   c63.67,0.15,127.34,0.04,191.01,0.04C518.18,170.89,518.18,170.88,518.18,170.88z M613.64,514.56c0.01-37.72-3.87-69.73-11.7-99.05   c-19.8-74.24-58.09-136.66-120.79-182.07c-69.94-50.65-147.33-65.79-230.72-41.24c-68.07,20.03-120.42,62.36-158.24,121.63   C32.66,407.13,20.66,507.9,51.75,613.46c20.79,70.6,60.81,128.73,121.73,170.95c62.32,43.19,131.16,58.36,205.72,42.39   c63.11-13.51,114.43-47.15,155.42-96.4C588.42,665.79,612.51,590.36,613.64,514.56z M396.6,834.03c1.49,0,2.98,0,4.47,0   c104.1-0.36,208.19-0.62,312.28-1.14c31.79-0.16,62.56-6.34,92.06-18.2c63.31-25.44,111.2-68.95,145.39-127.36   c45.8-78.26,58.48-162.62,41.47-251.21c-13.98-72.84-47.62-135.47-103.33-185.14C838.3,205.83,778.99,181.3,710.76,181   c-101.83-0.45-203.66-0.12-305.49-0.12c-1.62,0-3.23,0-4.85,0c2.61,1.66,5.37,2.56,8.12,3.49   c67.21,22.78,119.2,65.27,156.99,124.59c56.7,88.99,70.63,185.71,46.57,287.8c-15.42,65.44-47.48,122-96.57,168.39   C481.44,797.38,441.89,820.29,396.6,834.03z"
              />
              <path
                style="fill: #fff"
                d="M613.64,514.56c-1.12,75.8-25.21,151.23-79.01,215.84c-41,49.25-92.31,82.89-155.42,96.4   c-74.56,15.96-143.4,0.79-205.72-42.39C112.56,742.2,72.54,684.06,51.75,613.46C20.66,507.9,32.66,407.13,92.19,313.82   c37.82-59.27,90.17-101.6,158.24-121.63c83.39-24.54,160.78-9.41,230.72,41.24c62.7,45.41,100.99,107.83,120.79,182.07   C609.76,444.83,613.64,476.84,613.64,514.56z M372.94,508.01c0.03-29.81-24.15-54.05-53.93-54.08   c-29.8-0.03-54.04,24.15-54.07,53.93c-0.03,29.81,24.14,54.05,53.93,54.07C348.68,561.97,372.92,537.8,372.94,508.01z    M581.69,499.57c0.03,0.5,0.05,1,0.08,1.51c-2.15,0.64-4.29,1.84-6.44,1.85c-53.83,0.1-107.66,0.1-161.5,0.02   c-2.47,0-5.91,1.63-7.02-2.64c-0.07-0.27-1.86-0.36-2.72-0.1c-8.75,2.59-17.48,5.28-27.21,8.24c9.74,2.96,18.47,5.66,27.23,8.22   c0.88,0.26,2.07-0.18,3.01-0.55c1.62-0.64,3.15-2.14,4.72-2.14c54.67-0.11,109.33-0.12,164-0.01c2.02,0,4.03,1.26,6.05,1.93   c-0.06,0.48-0.12,0.95-0.18,1.43c9.4-2.84,18.8-5.69,29.42-8.9C600.45,505.21,591.07,502.39,581.69,499.57z"
              />
              <path
                style="fill: #fff"
                d="M396.6,834.03c45.28-13.74,84.84-36.65,118.94-68.88c49.09-46.39,81.15-102.96,96.57-168.39   c24.06-102.09,10.12-198.82-46.57-287.8c-37.79-59.32-89.79-101.81-156.99-124.59c-2.75-0.93-5.51-1.83-8.12-3.49   c1.62,0,3.23,0,4.85,0c101.83,0,203.66-0.33,305.49,0.12c68.23,0.3,127.54,24.84,178.18,69.99   c55.72,49.67,89.35,112.3,103.33,185.14c17.01,88.58,4.33,172.95-41.47,251.21c-34.19,58.42-82.08,101.92-145.39,127.36   c-29.5,11.85-60.27,18.04-92.06,18.2c-104.09,0.52-208.19,0.78-312.28,1.14C399.58,834.03,398.09,834.03,396.6,834.03z"
              />
              <path
                d="M372.94,508.01c-0.03,29.79-24.26,53.96-54.07,53.93c-29.78-0.03-53.95-24.26-53.93-54.07   c0.03-29.78,24.27-53.96,54.07-53.93C348.8,453.96,372.97,478.2,372.94,508.01z M318.82,553.82c25.09,0.06,45.87-20.55,46.01-45.63   c0.14-25.04-20.48-45.94-45.52-46.13c-25.26-0.2-46.27,20.64-46.26,45.89C273.06,533.01,293.75,553.76,318.82,553.82z"
              />
              <path
                style="fill: red"
                d="M375 508 400 495 400 503 587 503 587 495 612 508 587 521 587 513 400 513 400 521Z"
              />
              <path
                style="fill: #fff"
                d="M318.82,553.82c-25.07-0.06-45.76-20.8-45.77-45.88c0-25.25,21-46.08,46.26-45.89   c25.04,0.19,45.66,21.09,45.52,46.13C364.69,533.27,343.91,553.88,318.82,553.82z"
              />
        </symbol>
        <symbol id="roll-width-message">
            <path
                style="fill: #fff"
                d="M1066 1028c-369.31 0-738 6-1108 10 0-277.28 0-554.57 0-1032 369.28 0 738.64 0 1108 0C1066 373.3 1066 650.64 1066 928zM518.18 170.88c0 .01 0 .01 0 .02-63.67 0-127.34.11-191.01-.04-39.22-.09-76.83 7.39-112.51 23.62-67.66 30.76-116.61 81.06-149.69 146.88C28.3 414.28 17.74 491.44 31.75 571.75 44.91 647.23 77.84 712.7 134 765.39c53.43 50.12 116.77 77.34 190.55 77.52 128.84.31 257.68.07 386.52.1 28.56.01 56.42-4.4 83.44-13.53 66.18-22.35 117.42-64.19 155.31-122.18 50.21-76.85 67.54-161.47 55.39-252.11-9.3-69.45-35.99-131.62-82.57-184.27-57.88-65.42-130.02-100.62-218.46-100.11C642.18 171.16 580.18 170.88 518.18 170.88z"
              />
              <path
                d="M518.18,170.88c62,0,124.01,0.29,186.01-0.07c88.44-0.51,160.59,34.7,218.46,100.11c46.58,52.65,73.26,114.82,82.57,184.27   c12.14,90.64-5.19,175.26-55.39,252.11c-37.89,57.99-89.13,99.83-155.31,122.18c-27.03,9.13-54.89,13.53-83.44,13.53   c-128.84-0.02-257.68,0.22-386.52-0.1c-73.78-0.18-137.13-27.4-190.55-77.52C77.84,712.7,44.91,647.23,31.75,571.75   c-14-80.32-3.45-157.47,33.21-230.41c33.08-65.82,82.03-116.11,149.69-146.88c35.68-16.22,73.3-23.71,112.51-23.62   c63.67,0.15,127.34,0.04,191.01,0.04C518.18,170.89,518.18,170.88,518.18,170.88z M613.64,514.56c0.01-37.72-3.87-69.73-11.7-99.05   c-19.8-74.24-58.09-136.66-120.79-182.07c-69.94-50.65-147.33-65.79-230.72-41.24c-68.07,20.03-120.42,62.36-158.24,121.63   C32.66,407.13,20.66,507.9,51.75,613.46c20.79,70.6,60.81,128.73,121.73,170.95c62.32,43.19,131.16,58.36,205.72,42.39   c63.11-13.51,114.43-47.15,155.42-96.4C588.42,665.79,612.51,590.36,613.64,514.56z M396.6,834.03c1.49,0,2.98,0,4.47,0   c104.1-0.36,208.19-0.62,312.28-1.14c31.79-0.16,62.56-6.34,92.06-18.2c63.31-25.44,111.2-68.95,145.39-127.36   c45.8-78.26,58.48-162.62,41.47-251.21c-13.98-72.84-47.62-135.47-103.33-185.14C838.3,205.83,778.99,181.3,710.76,181   c-101.83-0.45-203.66-0.12-305.49-0.12c-1.62,0-3.23,0-4.85,0c2.61,1.66,5.37,2.56,8.12,3.49   c67.21,22.78,119.2,65.27,156.99,124.59c56.7,88.99,70.63,185.71,46.57,287.8c-15.42,65.44-47.48,122-96.57,168.39   C481.44,797.38,441.89,820.29,396.6,834.03z"
              />
              <path
                style="fill: #fff"
                d="M613.64,514.56c-1.12,75.8-25.21,151.23-79.01,215.84c-41,49.25-92.31,82.89-155.42,96.4   c-74.56,15.96-143.4,0.79-205.72-42.39C112.56,742.2,72.54,684.06,51.75,613.46C20.66,507.9,32.66,407.13,92.19,313.82   c37.82-59.27,90.17-101.6,158.24-121.63c83.39-24.54,160.78-9.41,230.72,41.24c62.7,45.41,100.99,107.83,120.79,182.07   C609.76,444.83,613.64,476.84,613.64,514.56z M372.94,508.01c0.03-29.81-24.15-54.05-53.93-54.08   c-29.8-0.03-54.04,24.15-54.07,53.93c-0.03,29.81,24.14,54.05,53.93,54.07C348.68,561.97,372.92,537.8,372.94,508.01z"
              />
              <path
                style="fill: #fff"
                d="M396.6,834.03c45.28-13.74,84.84-36.65,118.94-68.88c49.09-46.39,81.15-102.96,96.57-168.39   c24.06-102.09,10.12-198.82-46.57-287.8c-37.79-59.32-89.79-101.81-156.99-124.59c-2.75-0.93-5.51-1.83-8.12-3.49   c1.62,0,3.23,0,4.85,0c101.83,0,203.66-0.33,305.49,0.12c68.23,0.3,127.54,24.84,178.18,69.99   c55.72,49.67,89.35,112.3,103.33,185.14c17.01,88.58,4.33,172.95-41.47,251.21c-34.19,58.42-82.08,101.92-145.39,127.36   c-29.5,11.85-60.27,18.04-92.06,18.2c-104.09,0.52-208.19,0.78-312.28,1.14C399.58,834.03,398.09,834.03,396.6,834.03z"
              />
              <path
                d="M372.94,508.01c-0.03,29.79-24.26,53.96-54.07,53.93c-29.78-0.03-53.95-24.26-53.93-54.07   c0.03-29.78,24.27-53.96,54.07-53.93C348.8,453.96,372.97,478.2,372.94,508.01z M318.82,553.82c25.09,0.06,45.87-20.55,46.01-45.63   c0.14-25.04-20.48-45.94-45.52-46.13c-25.26-0.2-46.27,20.64-46.26,45.89C273.06,533.01,293.75,553.76,318.82,553.82z"
              />
              <path
                style="fill: red"
                d="M626 508 651 495 651 503 972 503 972 495 997 508 972 521 972 513 651 513 651 521Z"
              />
              <path
                style="fill: #fff"
                d="M318.82,553.82c-25.07-0.06-45.76-20.8-45.77-45.88c0-25.25,21-46.08,46.26-45.89   c25.04,0.19,45.66,21.09,45.52,46.13C364.69,533.27,343.91,553.88,318.82,553.82z"
              />
        </symbol>
        <symbol id="info" viewBox="0 0 20 20">
            <path d="M10,20A10,10,0,1,1,20,10,10.011,10.011,0,0,1,10,20ZM10,2a8,8,0,1,0,8,8A8.009,8.009,0,0,0,10,2Z"
                style="stroke:transparent;fill:currentColor" />
            <path d="M11,13V9a1,1,0,0,0-1-1H8v2H9v3H7v2h6V13Z" style="stroke:transparent;fill:currentColor" />
            <circle cx="1.25" cy="1.25" r="1.25" style="stroke:transparent;fill:currentColor"
                transform="translate(8.75 4.75)" />
        </symbol>
        <symbol id="success" viewBox="0 0 18 18">
            <g style="display:block!important" transform="translate(-116 -275)">
                <path d="M565,266a9,9,0,1,1,9-9A9.01,9.01,0,0,1,565,266Zm0-16a7,7,0,1,0,7,7A7.008,7.008,0,0,0,565,250Z"
                    style="stroke:transparent;fill:currentColor" transform="translate(-440 27)" />
                <path
                    d="M564,261a1,1,0,0,1-.664-.251l-2.933-2.6a1,1,0,1,1,1.327-1.5l2.214,1.963,4.2-4.374a1,1,0,0,1,1.442,1.386l-4.867,5.067A1,1,0,0,1,564,261Z"
                    style="stroke:transparent;fill:currentColor" transform="translate(-440 27)" />
            </g>
        </symbol>
        <symbol id="plus-fill" viewBox="0 0 22 22">
            <!--<path class="circle" d="M11,22C4.9,22,0,17.1,0,11S4.9,0,11,0s11,4.9,11,11S17.1,22,11,22z M11,2c-5,0-9,4-9,9s4,9,9,9s9-4,9-9 S16,2,11,2z"/>-->
            <path d="M11,17c-0.6,0-1-0.4-1-1V6c0-0.6,0.4-1,1-1s1,0.4,1,1v10C12,16.6,11.6,17,11,17z" />
            <path d="M16,12H6c-0.6,0-1-0.4-1-1s0.4-1,1-1h10c0.6,0,1,0.4,1,1S16.6,12,16,12z" />
        </symbol>
        <symbol id="plus-circle-fill" viewBox="0 0 22 22">
            <path
                d="M11,22C4.9,22,0,17.1,0,11S4.9,0,11,0s11,4.9,11,11S17.1,22,11,22z M11,2c-5,0-9,4-9,9s4,9,9,9s9-4,9-9 S16,2,11,2z"
                style="display:none" />
            <path d="M11,17c-0.6,0-1-0.4-1-1V6c0-0.6,0.4-1,1-1s1,0.4,1,1v10C12,16.6,11.6,17,11,17z" />
            <path d="M16,12H6c-0.6,0-1-0.4-1-1s0.4-1,1-1h10c0.6,0,1,0.4,1,1S16.6,12,16,12z" />
        </symbol>
        <symbol id="minus-fill" viewBox="0 0 22 22">
            <!--<path d="M11,22C4.9,22,0,17.1,0,11S4.9,0,11,0s11,4.9,11,11S17.1,22,11,22z M11,2c-5,0-9,4-9,9s4,9,9,9c5,0,9-4,9-9 S16,2,11,2z"/>-->
            <path d="M16,12H6c-0.6,0-1-0.4-1-1s0.4-1,1-1h10c0.6,0,1,0.4,1,1S16.6,12,16,12z" />
        </symbol>
        <symbol id="reload-fill" viewBox="0 0 24 24">
            <path d="M11.89,19.5c-3.2,0-6.02-2.04-7.03-5.07c-0.17-0.52,0.11-1.09,0.63-1.27c0.53-0.18,1.09,0.11,1.26,0.63
				c0.74,2.21,2.8,3.7,5.13,3.7c2.98,0,5.41-2.43,5.41-5.41s-2.43-5.41-5.41-5.41c-1.73,0-3.37,0.84-4.39,2.24
				c-0.33,0.45-0.95,0.55-1.4,0.22C5.66,8.83,5.56,8.2,5.89,7.75c1.39-1.92,3.64-3.07,6.01-3.07c4.09,0,7.41,3.32,7.41,7.41
				C19.3,16.18,15.98,19.5,11.89,19.5z" />
            <path d="M4,17.61c-0.15,0-0.3-0.03-0.45-0.11c-0.49-0.25-0.69-0.85-0.45-1.34l1.65-3.31
				c0.21-0.42,0.69-0.64,1.14-0.52l3.31,0.83c0.54,0.13,0.86,0.68,0.73,1.21C9.8,14.9,9.25,15.23,8.72,15.1l-2.53-0.63l-1.29,2.59
				C4.72,17.4,4.37,17.61,4,17.61z" />
            <!--<path d="M12,24C5.38,24,0,18.62,0,12S5.38,0,12,0c6.62,0,12,5.38,12,12S18.62,24,12,24z M12,2C6.49,2,2,6.49,2,12 s4.49,10,10,10c5.51,0,10-4.49,10-10S17.51,2,12,2z"/>-->
        </symbol>
        <symbol id="close-fill" viewBox="0 0 18 18">
            <path
                d="M6,13c-0.6,0-1-0.4-1-1c0-0.3,0.1-0.5,0.3-0.7l6-6c0.4-0.4,1-0.4,1.4,0c0.4,0.4,0.4,1,0,1.4l-6,6C6.5,12.9,6.3,13,6,13z" />
            <path d="M12,13c-0.3,0-0.5-0.1-0.7-0.3l-6-6c-0.4-0.4-0.4-1,0-1.4c0.4-0.4,1-0.4,1.4,0c0,0,0,0,0,0l6,6c0.4,0.4,0.4,1,0,1.4
	C12.5,12.9,12.3,13,12,13z" />
        </symbol>
        <symbol id="close-square-fill" viewBox="0 0 16 16">
            <path
                d="M13,16H3a3,3,0,0,1-3-3V3A3,3,0,0,1,3,0H13a3,3,0,0,1,3,3V13A3,3,0,0,1,13,16ZM8.02,9.48h0l2.208,2.208a1.063,1.063,0,0,0,.745.312.946.946,0,0,0,.713-.312,1,1,0,0,0,.292-.75,1.2,1.2,0,0,0-.292-.751L9.48,8.021l2.208-2.209a1,1,0,0,0,.292-.75,1.194,1.194,0,0,0-.292-.75A1.048,1.048,0,0,0,10.943,4a.947.947,0,0,0-.713.313L8.021,6.521,5.812,4.313a1.189,1.189,0,0,0-.75-.292,1.189,1.189,0,0,0-.75.292,1.2,1.2,0,0,0-.292.75,1.194,1.194,0,0,0,.292.75L6.521,8.021,4.313,10.229A1.058,1.058,0,0,0,4,11a.947.947,0,0,0,.312.687,1,1,0,0,0,.75.292,1.194,1.194,0,0,0,.75-.292Z" />
        </symbol>
        <symbol id="extend-fill" viewBox="0 0 24 24">
            <!--<path d="M12,24C5.38,24,0,18.62,0,12S5.38,0,12,0c6.62,0,12,5.38,12,12S18.62,24,12,24z M12,2C6.49,2,2,6.49,2,12 s4.49,10,10,10c5.51,0,10-4.49,10-10S17.51,2,12,2z"/>-->
            <path d="M18.73,20h-5.09v-2.55h3.82v-3.82H20v5.09C20,19.43,19.43,20,18.73,20z" />
            <path d="M10.36,20H5.27C4.57,20,4,19.43,4,18.73v-5.09h2.55v3.82h3.82V20z" />
            <path d="M6.55,10.36H4V5.27C4,4.57,4.57,4,5.27,4h5.09v2.55H6.55V10.36z" />
            <path d="M20,10.36h-2.55V6.55h-3.82V4h5.09C19.43,4,20,4.57,20,5.27V10.36z" />
        </symbol>
        <symbol id="chevron-right-large" viewBox="0 0 48 48">
            <polygon points="13.19,6.95 30.28,24.03 13.23,41.09 18.88,46.74 41.74,23.88 18.85,1.29 	" />
        </symbol>
        <symbol id="bag-sell" viewBox="0 0 22.112 25.5">
            <g transform="translate(-798.248 -459.25)">
                <path
                    d="M25.249,30.732H8.154a1.756,1.756,0,0,1-1.743-1.974l1.9-15.22A1.756,1.756,0,0,1,10.057,12h13.29a1.756,1.756,0,0,1,1.743,1.538l1.9,15.22A1.756,1.756,0,0,1,25.249,30.732Z"
                    transform="translate(792.602 453.268)" />
                <path d="M16,7.683a4.683,4.683,0,1,1,9.366,0" transform="translate(788.621 457)" />
                <path d="M20,9.341a2.341,2.341,0,0,1,4.683,0" transform="translate(786.962 455.341)" />
                <line y2="5.268" transform="translate(809.343 476.995) rotate(180)" />
                <path d="M2.927,0,1.463,1.463,0,0" transform="translate(810.806 472.605) rotate(180)" />
                <path d="M39.2,42v1.171a1.171,1.171,0,0,1-1.171,1.171H32.171A1.171,1.171,0,0,1,31,43.171V42"
                    transform="translate(774.245 435.581)" />
            </g>
        </symbol>
        <symbol id="bag-buy" viewBox="0 0 22.112 25.5">
            <g transform="translate(-798.248 -459.25)">
                <g transform="translate(799 460)">
                    <g transform="translate(0 0)">
                        <path
                            d="M25.249,30.732H8.154a1.756,1.756,0,0,1-1.743-1.974l1.9-15.22A1.756,1.756,0,0,1,10.057,12h13.29a1.756,1.756,0,0,1,1.743,1.538l1.9,15.22A1.756,1.756,0,0,1,25.249,30.732Z"
                            transform="translate(-6.398 -6.732)" />
                        <path d="M16,7.683a4.683,4.683,0,1,1,9.366,0" transform="translate(-10.379 -3)" />
                        <path d="M20,9.341a2.341,2.341,0,0,1,4.683,0" transform="translate(-12.038 -4.659)" />
                    </g>
                </g>
                <g transform="translate(805.245 471.142)">
                    <g transform="translate(0 0)">
                        <line y2="5.268" fill="none" transform="translate(4.098 0)" />
                        <path id="Path_3053" fill="none" d="M2.927,0,1.463,1.463,0,0"
                            transform="translate(2.634 4.39)" />
                        <path id="Path_3054" fill="none"
                            d="M39.2,42v1.171a1.171,1.171,0,0,1-1.171,1.171H32.171A1.171,1.171,0,0,1,31,43.171V42"
                            transform="translate(-31 -35.561)" />
                    </g>
                </g>
            </g>
        </symbol>
        <symbol id="warning" viewBox="0 0 22 22">
            <g transform="translate(-684.463 -277.82)">
                <g transform="translate(655.669 248.034)">
                    <g transform="translate(29.795 30.786)">
                        <path
                            d="M49.795,44.536c0,5.523-4.477,6.25-10,6.25s-10-.727-10-6.25,4.478-13.75,10-13.75S49.795,39.013,49.795,44.536Z"
                            transform="translate(-29.795 -30.786)" />
                    </g>
                </g>
                <line transform="translate(695.5 294.5)" />
                <line y1="8" transform="translate(695.5 283)" />
            </g>
        </symbol>
        <symbol id="16p-download" xmlns="http://www.w3.org/2000/svg" viewBox="0 0 16 16">
            <g transform="translate(-1718 -330)">
                <line y2="8.75" transform="translate(1726.259 331)" />
                <path d="M27.132,26.687l-3.22,3.22-3.1-3.1" transform="translate(1702.355 311.371)" />
                <path id="Path_1704" data-name="Path 1704"
                    d="M31.519,31v1.944a2.012,2.012,0,0,1-2.074,1.944H19.074A2.012,2.012,0,0,1,17,32.944V31"
                    transform="translate(1702 310.111)" />
            </g>
        </symbol>
        <symbol id="16p-pending" viewBox="0 0 22 22">
            <g transform="translate(-28 -27)">
                <g transform="translate(29 28)">
                    <path d="M34,30v6h7" transform="translate(-25.333 -24.75)" />
                    <circle cx="10" cy="10" r="10" transform="translate(0)" />
                </g>
            </g>
        </symbol>
        <symbol id="eye" viewBox="0 0 48 48">
            <g transform="translate(1 8)">
                <path id="Path_1" data-name="Path 1"
                    d="M1,23.951S6,8,24,8C41.655,8,47,24,47,24S41.854,40,24,40C6.13,40,1,23.951,1,23.951Z"
                    transform="translate(-1 -8)" />
                <circle cx="10" cy="10" r="10" transform="translate(13 6)" />
            </g>
        </symbol>
        <symbol id="check" viewBox="0 0 18 18">
            <path d="M31,36l3,3,7-6" transform="translate(-27 -27)" />
        </symbol>
        <symbol id="card" viewBox="0 0 48 48">
            <path
                d="M41,41H6 c-2.2091391,0-4-1.7908592-4-4V14c0-2.2091389,1.7908609-4,4-4h35c2.2091408,0,4,1.7908611,4,4v23 C45,39.2091408,43.2091408,41,41,41z" />
            <line x1="2" y1="19" x2="45" y2="19" />
            <line x1="24" y1="32" x2="39" y2="32" />
        </symbol>
        <symbol id="document-sign" viewBox="0 0 48 48">
            <path d="
		M31,46H8c-1.1045694,0-2-0.8954315-2-2V4c0-1.1045694,0.8954306-2,2-2h32c1.1045685,0,2,0.8954306,2,2v34L31,46z" />

            <polyline points="
		41,38 30,38 30,45 	" />

            <line x1="19" y1="11" x2="29" y2="11" />

            <line stroke-dasharray="4" x1="12" y1="20" x2="36" y2="20" />

            <line stroke-dasharray="4" x1="12" y1="24" x2="23" y2="24" />
            <path d="
		M24.564043,30.3721008c1.2165451-0.4414463,2.3500957-1.1104336,3.3245659-1.9620571
		c0.0759048,0.7555504,0.1505222,3.8092594-0.0397816,4.5443821s-0.7034607,1.434948-1.4378452,1.6280861
		c-0.5875931,0.1545296-1.2061558-0.0316849-1.7791309-0.2337914c1.2831688-0.6072693,2.5663395-1.2145424,3.8495102-1.8218117
		c0.4692516,0.3356361,1.1699829,0.0857887,1.5160103-0.3758545c0.3460274-0.4616413,0.4302559-1.0623569,0.5033627-1.6346359
		c0.4467316,0.7659931,0.736639,1.6229973,0.846674,2.5028915c0.2476463,0.0061569,0.4683762-0.1777687,0.5807228-0.3985519
		c0.1123428-0.2207832,0.1378975-0.4740562,0.1615715-0.720644c0.1147461-1.1951962,0.2294922-2.3903904,0.3442345-3.5855846
		c-0.0695,1.580946,0.0682907,3.1708832,0.4087372,4.716301c0.5970764-0.3395767,1.0753212-0.8836594,1.3355064-1.5193615
		c1.1774864-0.4380531,2.3549767-0.8761044,3.5324631-1.3141556" />
        </symbol>
        <symbol id="wallet-cards" viewBox="0 0 48 48">
            <g>
                <path d="M45,34v10
			c0,1.1045685-0.8954315,2-2,2H5c-1.1045694,0-2-0.8954315-2-2V13.5707321c0-0.944767,0.6611128-1.7606716,1.5853524-1.9565449
			L9,10" />
                <path d="M45,24v-8.9248314
			c0-1.1045694-0.8954315-2-2-2H4" />
                <path d="M45,34H33
			c-1.1045704,0-2-0.8954315-2-2v-6c0-1.1045704,0.8954296-2,2-2h12c1.1045685,0,2,0.8954296,2,2v6
			C47,33.1045685,46.1045685,34,45,34z" />
                <circle cx="37" cy="29" r="2" />
            </g>
            <path d="M9,12v-2
		c0-1.1045694,0.8954306-2,2-2h25c1.1045685,0,2,0.8954306,2,2v2" />
            <path d="M11,8V6
		c0-1.1045694,0.8954306-2,2-2h26c1.1045685,0,2,0.8954306,2,2v7" />
        </symbol>
<symbol id="cash" viewBox="0 0 48 48">
	
		<polyline  points="
		25.7941151,20.462965 17,26 3,17 30,2 44,9 33.1606026,15.8248062 	"/>
	
		<polyline  points="
		25.8244991,25.4438343 17,31 3,22 7,20 	"/>
	
		<polyline  points="
		41,12 44,14 33.1420631,20.8364773 	"/>
	
		<polyline  points="
		25.9403763,30.3708744 17,36 3,27 7,25 	"/>
	
		<polyline  points="
		41,17 44,19 33.1123009,25.8552189 	"/>
	
		<polyline  points="
		25.9104729,35.3897018 17,41 3,32 7,30 	"/>
	
		<polyline  points="
		41,22 44,24 33.0940704,30.8666973 	"/>
	
		<polyline  points="
		41,27 44,29 17,46 3,37 7,35 	"/>
	<path  d="
		M14,11l11.2000008,8.3999996C25.7036114,19.7777081,26,20.3704853,26,21v19"/>
	<path  d="
		M22,7l10.1826019,7.4055281c0.5139809,0.3738041,0.819706,0.9696407,0.823616,1.6051645L33.125,35.3125"/>
</symbol>
<symbol id="clock" viewBox="0 0 48 48">
	<circle cx="24" cy="24" r="22.5"/>
	<!-- <text transform="matrix(1 0 0 1 22 12)" font-family="'GothamRounded-Bold'" font-size="10">1</text>
	<text transform="matrix(1 0 0 1 37 28)" font-family="'GothamRounded-Bold'" font-size="10">3</text>
	<text transform="matrix(1 0 0 1 4 27)" font-family="'GothamRounded-Bold'" font-size="10">9</text>
	<text transform="matrix(1 0 0 1 21 43)" font-family="'GothamRounded-Bold'" font-size="10">6</text> -->
	<polyline  points="15,15 24,24 
		36,12 	"/>
	<circle  cx="24" cy="24" r="2"/>
</symbol>
<symbol id="money-bag" viewBox="0 0 48 48">
	<path  d="M20.0413113,14h7.9173775
		c0.6526279,0,1.2642059,0.3184223,1.638464,0.853075l10.7874451,15.4106369
		c1.6613083,2.3732967,2.2118835,5.3503551,1.5092659,8.1608372l-0.0000038,0.0000114
		C40.7808266,42.8766975,36.7805748,46,32.1914177,46H15.8085842c-4.5891581,0-8.5894089-3.1233025-9.7024441-7.5754395
		l-0.0000029-0.0000114c-0.70262-2.810482-0.1520429-5.7875404,1.509264-8.1608372l10.787446-15.4106369
		C18.7771053,14.3184223,19.3886833,14,20.0413113,14z"/>
	<path  d="M31,5l-1.4971123,3.7427816
		C29.1991615,9.5020981,28.4637432,10,27.6459332,10h-7.137331c-0.8929596,0-1.6777325-0.5919542-1.923048-1.4505577L17,3
		c0,0,2.9117508-2.5170894,6,0C25.1933956,4.7877359,28.6132069-0.3419811,31,5z"/>
	<path  d="
		M25,20c0,0,2.554245,9.912735,5,11S28.6981125,25.9551888,25,20z"/>
	<path  d="
		M19,23c0,0-6.7381258,7.8533154-4,8C16.5849056,31.0849056,19,23,19,23z"/>
	
		<line  x1="23" y1="10" x2="22" y2="3"/>
</symbol>
<symbol id="desktop" viewBox="0 0 48 48">
	<rect x="7" y="6"  width="34" height="22"/>
	<path  d="M3,35V4c0-1.1045694,0.8954306-2,2-2h38c1.1045685,0,2,0.8954306,2,2v31c0,1.1045685-0.8954315,2-2,2H5 C3.8954306,37,3,36.1045685,3,35z"/>
	<path  d="M33,47v-2c0-1.1045685-0.8954315-2-2-2h-0.63908c-1.235878,0-2.1759644-1.1097336-1.9727879-2.3287964L29,37H19 l0.6118679,3.6712036C19.8150444,41.8902664,18.874958,43,17.63908,43H17c-1.1045694,0-2,0.8954315-2,2v2H33z"/>
	<circle cx="23.5" cy="32.5" r="1"/>
</symbol>
<symbol id="card-cart" viewBox="0 0 48 48">
	<path  d="M44,17
		l-3.6212692,14.4850712C40.156147,32.3754044,39.3561821,33,38.438446,33H18.4734097
		c-0.8762207,0-1.6504154-0.5703545-1.9101276-1.4072018L8,4H3"/>
	<circle  cx="22" cy="41" r="4"/>
	<circle  cx="37" cy="41" r="4"/>
	
		<line  x1="14" y1="21" x2="43" y2="21"/>
	
		<line  x1="15" y1="25" x2="42" y2="25"/>
	
		<line  x1="17" y1="29" x2="40" y2="29"/>
	<path  d="M36.6295776,15
		l1.9112358-3.3586588c0.5462952-0.9600172,0.210907-2.1811256-0.7491112-2.7274218l-9.6164875-5.4722481
		c-0.9600163-0.5462964-2.1811256-0.2109098-2.7274227,0.7491071L19.296814,15"/>
	
		<line  x1="31" y1="6" x2="25" y2="16"/>
</symbol>
<symbol id="report-up" viewBox="0 0 48 48">
	
		<line  x1="18" y1="8" x2="30" y2="8"/>
	
		<line  x1="11" y1="13" x2="17" y2="13"/>
	
		<line  x1="11" y1="16" x2="15" y2="16"/>
	
		<line  x1="11" y1="19" x2="13" y2="19"/>
	<polyline  points="16,31 
		22,22.8571434 26.2857151,27.5714283 32.7142868,16 	"/>
	<polyline  points="28,17.2857151 
		32.7142868,16 34,20.7142849 	"/>
	<path  d="
		M31,46H8c-1.1045694,0-2-0.8954315-2-2V4c0-1.1045694,0.8954306-2,2-2h32c1.1045685,0,2,0.8954306,2,2v34L31,46z"/>
	
		<polyline  points="
		41,38 30,38 30,45 	"/>
</symbol>
<symbol id="code-card" viewBox="0 0 48 48">
	<path  d="M41,40H6
		c-2.2091391,0-4-1.7908592-4-4V13c0-2.2091389,1.7908609-4,4-4h35c2.2091408,0,4,1.7908611,4,4v23
		C45,38.2091408,43.2091408,40,41,40z"/>
	
		<line  x1="2" y1="17" x2="45" y2="17"/>
	
		<line  x1="2" y1="24" x2="45" y2="24"/>
	
		<line  x1="26" y1="20" x2="26" y2="21"/>
	
		<line  x1="30" y1="20" x2="30" y2="21"/>
	
		<line  x1="34" y1="20" x2="34" y2="21"/>
	
		<line  x1="38" y1="20" x2="38" y2="21"/>
</symbol>

<symbol viewBox="0 0 48 48" id="money-exchange">
	<circle  cx="16" cy="16" r="14"/>
	<path  d="M18.1379395,33.8616333
		C19.050415,40.7112427,24.9008179,46,32,46c7.7319946,0,14-6.2680054,14-14c0-7.0991821-5.2887573-12.949585-12.1383667-13.8620605
		"/>
	<path  d="M33.050251,5h4.1675835
		c1.5643005,0,2.8324165,1.2681165,2.8324165,2.832418V12"/>
	<polyline  points="44,10 40,14 
		36,10 	"/>
	<path  d="M14.9497471,43h-4.1675816
		c-1.5643015,0-2.832418-1.268116-2.832418-2.8324165V36"/>
	<polyline  points="4,38 8,34 12,38 	
		"/>
	<g>
		<path  d="M19.0755711,11.463541
			c0,0-0.7343102-1.5245171-2.5749474-1.5449686c-2.8968172-0.0321875-4.1397095,4.0669298-0.7274179,5.2399054
			c5.2870913,1.8174381,3.3752413,6.0659924,0.7789011,6.0895958c-2.1713934,0.0197411-3.0447979-1.2745667-3.3988438-1.6994209"/>
		
			<line  x1="17" y1="8" x2="17" y2="10"/>
		
			<line  x1="17" y1="22" x2="17" y2="23"/>
	</g>
	<path  d="M36,26.4754772
		c-0.5390434-0.1757965-1.113205-0.2737427-1.7109222-0.2737427c-3.0473404,0-5.5177155,2.4703579-5.5177155,5.5177116
		s2.4703751,5.5177135,5.5177155,5.5177135c0.5977173,0,1.1718788-0.0979462,1.7109222-0.2737427"/>
	
		<line  x1="27" y1="30" x2="33" y2="30"/>
	
		<line  x1="27" y1="34" x2="33" y2="34"/>
</symbol>
<symbol viewBox="0 0 48 48" id="dollar-in">
	<path  d="M26.7114048,18.1768284
		c0,0-0.8596802-1.7848015-3.0145721-1.8087444c-3.3913956-0.0376816-4.846489,4.7612858-0.8516121,6.1345234
		c6.1897659,2.1277332,3.9515038,7.1016521,0.9118862,7.1292839c-2.54212,0.0231113-3.564642-1.4921761-3.9791355-1.9895668"/>
	
		<line  x1="24" y1="14" x2="24" y2="32"/>
	
		<line  x1="37" y1="31" x2="37" y2="42"/>
	<polyline  points="42,37 37,42 
		32,37 	"/>
	<path  d="M44.6854362,27.4978638
		C44.8770218,26.3578587,45,25.1944447,45,24c0-11.5979776-9.4020233-21-21-21S3,12.4020224,3,24s9.4020224,21,21,21
		c1.1944447,0,2.3578587-0.1229782,3.4978638-0.3145638"/>
	<path  d="M40.578949,24
		c0-9.1562977-7.4226494-16.5789471-16.578949-16.5789471S7.4210525,14.8437023,7.4210525,24S14.8437023,40.578949,24,40.578949"/>
</symbol>
<symbol id="users-fill" viewBox="0 0 31.998 30">
	<path d="M24.898,20.362l-4.681-1.769C19.485,18.317,19,17.615,19,16.832v-0.884c1-0.916,2.143-2.344,2.783-3.948
		c0.715,0,1.338-0.487,1.511-1.181l0.398-1.594c0.074-0.294,0.008-0.606-0.18-0.846C23.326,8.14,23.039,8,22.735,8
		c0.037-0.407,0.063-0.811,0.063-1.2c0-4.382-2.418-6.8-6.8-6.8s-6.8,2.418-6.8,6.8c0,0.39,0.026,0.793,0.063,1.2
		C8.959,8,8.672,8.14,8.485,8.379c-0.187,0.24-0.253,0.552-0.179,0.846l0.398,1.594C8.877,11.513,9.501,12,10.216,12
		C10.856,13.604,12,15.032,13,15.948v0.884c0,0.783-0.485,1.485-1.219,1.762l-4.681,1.769C5.234,21.066,4,22.854,4,24.848V28
		c0,1.104,0.895,2,1.999,2h20C27.104,30,28,29.104,28,28v-3.152C28,22.854,26.766,21.066,24.898,20.362z"/>
	<path d="M9.688,15.271l-1.801-0.66v-1.503c-0.533-0.466-0.943-1.077-1.124-1.804L6.366,9.714c-0.227-0.9-0.028-1.837,0.539-2.561
		c0.091-0.117,0.189-0.226,0.294-0.326c0-0.01,0-0.019,0-0.027c0-1.607,0.288-3.019,0.821-4.222C7.32,2.207,6.467,2,5.443,2
		C2.431,2,0.769,3.663,0.769,6.675C0.769,6.78,0.779,6.892,0.783,7C0.351,7,0,7.351,0,7.783v0.842C0,9.384,0.616,10,1.375,10
		c0.375,1.025,0.918,1.968,1.624,2.642v1.929L1.581,15.1C0.631,15.454,0,16.362,0,17.377V22c0,1.104,0.896,2,1.999,2h0.066
		c0.314-2.465,1.967-4.618,4.327-5.509l4.528-1.71C10.478,16.338,10.067,15.83,9.688,15.271z"/>
	<path d="M22.31,15.271l1.801-0.66v-1.503c0.533-0.466,0.943-1.077,1.124-1.804l0.397-1.591c0.227-0.9,0.028-1.837-0.539-2.561
		c-0.091-0.117-0.189-0.226-0.294-0.326c0-0.01,0-0.019,0-0.027c0-1.607-0.288-3.019-0.821-4.222C24.678,2.207,25.531,2,26.555,2
		c3.013,0,4.675,1.663,4.675,4.675c0,0.105-0.011,0.217-0.015,0.325c0.433,0,0.783,0.351,0.783,0.783v0.842
		c0,0.76-0.615,1.375-1.375,1.375c-0.375,1.025-0.918,1.968-1.624,2.642v1.929l1.418,0.529c0.95,0.354,1.581,1.263,1.581,2.277V22
		c0,1.104-0.896,2-1.999,2h-0.066c-0.314-2.465-1.967-4.618-4.327-5.509l-4.528-1.71C21.521,16.338,21.931,15.83,22.31,15.271z"/>
</symbol>
<symbol id="worker" 
viewBox="356.232 409.711 2098 5725"
>
  <path
    d="M1564 425C1560 434 1553 439 1546 438 1535 437 1459 455 1430 467 1422 470 1412 472 1407 472 1403 471 1396 480 1391 493 1386 505 1375 522 1366 529 1357 536 1350 549 1350 557 1350 564 1343 573 1335 577 1309 586 1263 712 1255 795 1244 900 1230 926 1175 940 1155 946 1140 990 1158 990 1163 990 1165 1009 1163 1032 1157 1088 1195 1270 1218 1292 1227 1302 1259 1313 1289 1317 1337 1324 1344 1328 1351 1352 1355 1367 1367 1392 1378 1407 1394 1430 1397 1450 1396 1520 1395 1584 1392 1604 1382 1602 1375 1601 1354 1606 1337 1614 1319 1622 1258 1634 1200 1640 1143 1646 1092 1654 1087 1657 1083 1659 1063 1664 1042 1666 949 1677 903 1699 855 1753 811 1802 711 1957 706 1983 704 1990 678 2022 647 2055 615 2088 590 2119 590 2124 590 2129 583 2138 574 2145 554 2159 562 2210 585 2210 602 2210 582 2257 532 2334 515 2361 493 2406 484 2434 475 2462 455 2499 440 2516 425 2534 399 2589 381 2644 352 2734 351 2743 365 2769 388 2815 459 2869 518 2886 551 2896 601 2901 653 2899 722 2897 742 2900 779 2919 825 2943 855 2943 950 2921 975 2916 1026 2911 1064 2910L1133 2910 1127 2947C1123 2967 1117 2986 1112 2989 1099 2998 1091 3085 1102 3104 1115 3127 1101 3185 1072 3228 1051 3260 1047 3278 1044 3360 1039 3475 1008 3725 954 4070 940 4161 924 4260 920 4290 916 4320 898 4388 881 4440 783 4741 683 5249 711 5301 722 5323 717 5352 683 5442 661 5502 660 5513 671 5545 681 5572 682 5590 673 5623 664 5657 664 5668 675 5680 687 5693 687 5710 676 5789 669 5840 664 5889 665 5898 676 5998 684 6041 691 6046 696 6049 700 6060 700 6070 700 6080 716 6098 738 6112 773 6134 784 6135 960 6135 1174 6135 1195 6129 1218 6065 1241 5999 1237 5934 1202 5837 1164 5732 1162 5704 1191 5695 1219 5686 1227 5658 1219 5592 1214 5550 1216 5531 1226 5519 1242 5501 1243 5462 1230 5405 1224 5378 1225 5361 1233 5352 1239 5344 1245 5302 1246 5256 1248 5111 1337 4795 1425 4619 1449 4572 1498 4462 1535 4374 1571 4287 1605 4206 1610 4195 1617 4182 1618 4237 1615 4359 1611 4513 1608 4546 1594 4561 1581 4576 1579 4585 1587 4603 1595 4619 1594 4645 1584 4695 1563 4799 1544 4902 1504 5127 1496 5172 1490 5223 1490 5240 1490 5258 1481 5283 1470 5297 1451 5322 1450 5324 1467 5342 1484 5361 1484 5362 1467 5375 1444 5391 1445 5412 1470 5428 1495 5443 1498 5517 1475 5534 1455 5549 1443 5685 1460 5705 1476 5724 1679 5727 1698 5708 1707 5699 1718 5700 1747 5709 1775 5718 1859 5721 2050 5718 2284 5715 2319 5713 2343 5697 2376 5675 2400 5631 2403 5583 2405 5552 2400 5543 2374 5525 2356 5513 2316 5495 2284 5485 2246 5473 2201 5447 2158 5413 2120 5383 2090 5358 2090 5357 2090 5355 2081 5306 2070 5247 2048 5123 2049 5011 2078 4718 2095 4548 2099 4529 2122 4502 2142 4478 2148 4457 2153 4394 2157 4350 2166 4238 2174 4145 2182 4051 2192 3924 2195 3862 2203 3737 2193 3530 2179 3530 2174 3530 2170 3610 2170 3707 2170 3846 2144 4306 2136 4317 2135 4318 2096 4327 2050 4337L1967 4355 1929 4545C1908 4649 1893 4741 1896 4749 1899 4759 1917 4762 1975 4758 2026 4755 2050 4757 2050 4764 2050 4770 2043 4838 2035 4915 2027 4992 2023 5071 2026 5090L2033 5125 2011 5098C1998 5082 1992 5065 1997 5054 2002 5040 1999 5038 1974 5043 1921 5055 1690 5083 1685 5079 1679 5072 1676 4757 1683 4740 1695 4707 1699 4618 1688 4595 1680 4577 1680 4567 1688 4557 1694 4550 1697 4534 1693 4522 1690 4510 1692 4500 1697 4500 1702 4500 1712 4449 1719 4388 1733 4257 1759 4108 1794 3960 1836 3779 1832 3787 1871 3777 1914 3766 1932 3750 1901 3750 1884 3750 1880 3746 1884 3732 1900 3681 1920 3581 1920 3552 1920 3508 1902 3511 1895 3557 1885 3618 1860 3725 1852 3737 1842 3753 1762 3771 1754 3759 1743 3741 1730 3761 1730 3795 1730 3836 1666 4012 1559 4267L1477 4459 1433 4466C1375 4475 1264 4463 1164 4438L1083 4418 1087 4322C1096 4110 1138 3813 1175 3707L1188 3668 1159 3696C1131 3722 1105 3723 1125 3696 1131 3689 1159 3652 1188 3614 1217 3576 1243 3533 1247 3517 1250 3502 1256 3490 1260 3490 1272 3490 1291 3438 1285 3420 1277 3396 1305 3374 1324 3389 1334 3397 1340 3398 1345 3390 1354 3376 1402 3378 1442 3394 1488 3414 1890 3429 1890 3412 1890 3404 1870 3400 1836 3400 1774 3400 1772 3398 1778 3302L1782 3240 1824 3240C1848 3240 1888 3237 1914 3234L1960 3227 1960 3309C1960 3380 1958 3390 1942 3390 1917 3390 1900 3409 1900 3437 1900 3450 1896 3460 1890 3460 1885 3460 1880 3471 1880 3485 1880 3535 1920 3507 1927 3452 1932 3412 1933 3412 1989 3402 2020 3396 2053 3389 2063 3385 2075 3380 2080 3383 2080 3397 2080 3408 2087 3425 2095 3436 2103 3446 2110 3462 2110 3471 2110 3498 2137 3515 2155 3500 2165 3491 2170 3491 2170 3499 2170 3505 2175 3510 2181 3510 2187 3510 2190 3495 2189 3476 2186 3448 2191 3437 2213 3420 2236 3402 2240 3392 2235 3370 2232 3354 2233 3339 2239 3335 2245 3332 2250 3316 2250 3300 2250 3278 2257 3267 2278 3256 2344 3222 2383 3117 2361 3031 2350 2987 2351 2978 2368 2943 2420 2841 2468 2622 2451 2564 2447 2548 2423 2494 2398 2445 2355 2358 2354 2353 2366 2315 2389 2240 2384 2210 2338 2160 2278 2095 2217 2001 2189 1929 2159 1849 2104 1792 2016 1751 1894 1692 1870 1653 1870 1510 1870 1454 1874 1438 1900 1400 1916 1375 1930 1348 1930 1339 1930 1328 1946 1320 1984 1311 2014 1304 2043 1294 2048 1287 2059 1273 2085 1160 2095 1082 2100 1048 2098 1025 2090 1016 2083 1006 2082 1000 2090 995 2108 984 2101 950 2078 941 2034 924 2018 895 2009 810 1998 710 1972 636 1929 575 1910 549 1888 518 1880 505 1863 477 1844 468 1770 450 1740 442 1708 430 1699 423 1676 404 1571 406 1564 425ZM1674 446C1677 455 1680 493 1680 531 1680 569 1684 600 1689 600 1700 600 1714 485 1705 471 1696 456 1710 457 1760 475 1783 483 1814 490 1828 490 1852 490 1852 491 1846 550 1841 590 1843 610 1850 610 1855 610 1860 605 1860 600 1860 594 1863 590 1868 590 1872 590 1875 646 1875 715 1875 822 1877 841 1891 845 1900 848 1910 862 1912 875 1916 896 1914 899 1896 895 1788 870 1469 873 1370 900 1319 914 1310 913 1317 893 1324 876 1323 876 1299 892L1273 908 1278 857C1290 711 1323 615 1386 538 1433 480 1454 477 1470 525 1486 572 1502 570 1494 521 1488 482 1488 481 1526 471 1548 465 1567 460 1570 460 1573 460 1573 485 1572 515 1569 550 1572 570 1579 570 1585 570 1590 549 1591 522 1592 496 1593 470 1595 465 1596 459 1598 449 1598 442 1601 424 1667 427 1674 446ZM1950 645C1950 650 1945 648 1940 640 1935 632 1930 620 1930 615 1930 609 1935 612 1940 620 1945 628 1950 639 1950 645ZM1987 862C1985 875 1983 867 1983 845 1982 823 1984 813 1987 822 1989 832 1989 850 1987 862ZM1808 909C1854 918 1867 926 1856 937 1845 949 1409 943 1398 932 1390 924 1393 921 1406 921 1416 921 1445 916 1470 911 1528 900 1752 898 1808 909ZM1409 1007C1388 1030 1387 1032 1405 1026 1460 1004 1499 998 1547 1004 1578 1008 1601 1006 1605 1000 1613 987 1687 987 1695 999 1698 1005 1731 1009 1768 1008 1805 1008 1848 1013 1863 1019 1903 1034 1904 1033 1886 1005L1870 980 1911 980 1953 980 1946 1056C1943 1099 1935 1138 1930 1145 1917 1160 1901 1289 1907 1322 1913 1354 1892 1395 1824 1486 1755 1578 1751 1580 1688 1587 1600 1596 1560 1579 1490 1502 1382 1386 1380 1382 1369 1279 1362 1218 1362 1184 1368 1182 1374 1180 1367 1168 1355 1154 1340 1138 1329 1110 1325 1082 1322 1056 1317 1023 1315 1007 1311 980 1311 980 1372 980L1433 980 1409 1007ZM1843 1687C1836 1699 1817 1711 1800 1715 1784 1719 1770 1726 1770 1732 1770 1738 1777 1739 1786 1736 1795 1733 1805 1730 1810 1730 1815 1730 1833 1718 1850 1703 1882 1677 1883 1677 1897 1696 1905 1706 1921 1735 1932 1760 1943 1785 1958 1818 1966 1835 1983 1873 2000 1960 2000 2015 2000 2060 2010 2070 2056 2070 2071 2070 2079 2074 2075 2081 2071 2087 2062 2089 2055 2086 2036 2079 2028 2091 2041 2107 2050 2117 2049 2120 2036 2120 2027 2120 2020 2112 2020 2101 2020 2090 2016 2078 2010 2075 1991 2064 2000 2110 2020 2130 2031 2141 2040 2156 2039 2162 2039 2172 2037 2172 2033 2162 2024 2139 2010 2150 2010 2180 2010 2212 2019 2217 2038 2198 2047 2189 2050 2189 2050 2199 2050 2206 2053 2209 2058 2206 2062 2204 2081 2205 2100 2210 2131 2217 2128 2218 2073 2219 2013 2220 2010 2221 2010 2245L2010 2270 1745 2270 1480 2270 1480 2227C1479 2113 1474 2052 1463 2020 1457 2001 1446 1951 1440 1910 1424 1804 1412 1763 1380 1698 1356 1651 1354 1641 1367 1636 1395 1625 1413 1630 1448 1661 1507 1713 1584 1743 1672 1748 1720 1751 1750 1749 1750 1743 1750 1737 1715 1731 1673 1728 1625 1725 1577 1715 1549 1703 1505 1683 1503 1681 1502 1636L1500 1589 1527 1607C1562 1630 1679 1630 1732 1608 1753 1598 1784 1571 1807 1540L1845 1489 1851 1577C1855 1639 1852 1671 1843 1687ZM1437 1612C1435 1625 1433 1617 1433 1595 1432 1573 1434 1563 1437 1572 1439 1582 1439 1600 1437 1612ZM1214 1692C1222 1705 1241 1753 1255 1800 1269 1847 1286 1901 1292 1920 1298 1939 1305 1989 1306 2030 1309 2123 1319 2182 1331 2174 1336 2171 1340 2160 1340 2149 1340 2138 1344 2131 1349 2134 1354 2137 1356 2149 1353 2161 1349 2173 1353 2186 1361 2190 1372 2197 1371 2200 1356 2206 1345 2210 1335 2208 1329 2199 1320 2184 1319 2186 1316 2245 1309 2388 1272 2750 1246 2925L1235 3005 1205 3002C1155 2997 1150 2993 1150 2949 1150 2917 1155 2904 1176 2887 1196 2871 1201 2861 1197 2836 1194 2815 1199 2796 1213 2778 1232 2753 1232 2746 1222 2716 1211 2687 1212 2678 1227 2652 1242 2625 1243 2617 1232 2586 1223 2561 1222 2545 1229 2531 1245 2501 1242 2465 1221 2439 1206 2420 1189 2414 1139 2410 1053 2403 1052 2383 1131 2287 1135 2282 1152 2286 1170 2295 1217 2319 1229 2307 1185 2280L1147 2256 1113 2296C1081 2332 1079 2333 1085 2308 1101 2243 1047 2166 989 2172L955 2175 952 2242C950 2280 946 2310 941 2310 937 2310 918 2298 899 2284 815 2221 655 2161 609 2175 590 2181 589 2180 600 2159 607 2147 638 2110 669 2076 700 2042 749 1974 778 1925 836 1825 904 1740 926 1740 950 1740 1014 1806 1050 1869 1069 1902 1089 1930 1093 1930 1110 1930 1043 1825 995 1773 937 1712 931 1719 1072 1690 1193 1666 1197 1666 1214 1692ZM2105 1831C2124 1848 2143 1874 2147 1889 2163 1945 2244 2082 2302 2151 2362 2222 2362 2224 2357 2271 2345 2371 2296 2441 2208 2486L2160 2510 2160 2401C2160 2336 2156 2289 2150 2285 2144 2281 2140 2260 2140 2237 2141 2178 2126 2070 2113 2040 2107 2026 2090 1977 2076 1930 2061 1883 2041 1830 2030 1812 2019 1794 
    2010 1777 2010 1775 2010 1765 2070 1801 2105 1831ZM1407 2067C1404 2069 1388 2072 1371 2072 1335 2073 1320 2088 1341 2101 1352 2108 1351 2110 1338 2110 1325 2110 1320 2102 1320 2082 1320 2056 1322 2055 1366 2058 1391 2060 1409 2064 1407 2067ZM1447 2082C1444 2089 1442 2084 1442 2070 1442 2056 1444 2051 1447 2057 1449 2064 1449 2076 1447 2082ZM2120 2084C2120 2087 2116 2092 2110 2095 2105 2098 2100 2096 2100 2091 2100 2085 2105 2080 2110 2080 2116 2080 2120 2082 2120 2084ZM2100 2142C2100 2147 2096 2150 2090 2150 2085 2150 2080 2140 2080 2127 2080 2109 2082 2108 2090 2120 2095 2128 2100 2138 2100 2142ZM1420 2130C1420 2135 1415 2140 1409 2140 1404 2140 1402 2135 1405 2130 1408 2124 1413 2120 1416 2120 1418 2120 1420 2124 1420 2130ZM1403 2177C1396 2179 1384 2179 1378 2177 1371 2174 1376 2172 1390 2172 1404 2172 1409 2174 1403 2177ZM977 2237C974 2247 972 2239 972 2220 972 2201 974 2193 977 2202 979 2212 979 2228 977 2237ZM1468 2197C1458 2199 1440 2199 1428 2197 1415 2195 1423 2193 1445 2193 1467 2192 1477 2194 1468 2197ZM780 2236C840 2265 940 2330 940 2340 940 2352 893 2410 867 2430 853 2441 839 2459 835 2469 826 2499 771 2504 719 2480 673 2459 585 2453 575 2470 571 2476 591 2480 629 2480 692 2480 740 2495 740 2515 740 2521 728 2537 714 2551 676 2586 660 2631 660 2704 660 2756 666 2779 689 2824L719 2880 648 2880C581 2880 470 2855 470 2839 470 2835 459 2829 445 2826 397 2814 366 2735 391 2689 397 2678 408 2643 416 2612 424 2581 444 2538 460 2518 476 2498 499 2457 510 2427 522 2396 542 2355 555 2335 569 2315 580 2298 580 2296 580 2294 592 2271 606 2245L633 2198 679 2204C704 2207 750 2222 780 2236ZM984 2297C974 2356 949 2410 934 2410 914 2410 916 2402 945 2368 959 2352 970 2328 970 2315 970 2290 979 2260 987 2260 989 2260 988 2277 984 2297ZM2059 2297 2143 2303 2137 2489C2130 2679 2135 2780 2152 2780 2157 2780 2158 2742 2155 2687L2148 2595 2178 2577C2195 2568 2215 2560 2224 2560 2233 2560 2240 2555 2240 2550 2240 2537 2236 2537 2193 2555 2148 2574 2148 2574 2161 2546 2167 2533 2194 2512 2220 2500 2247 2487 2286 2460 2306 2439 2327 2417 2347 2400 2350 2400 2356 2400 2421 2543 2433 2580 2446 2623 2403 2819 2354 2935L2339 2971 2297 2940C2274 2923 2239 2907 2219 2904 2184 2898 2182 2896 2177 2853 2175 2829 2170 2806 2166 2803 2151 2787 2149 2816 2159 2904 2179 3072 2179 3072 2108 3145L2045 3209 1805 3212C1557 3215 1489 3209 1350 3172 1206 3134 1156 3102 1162 3054 1165 3027 1167 3025 1207 3028 1229 3030 1251 3027 1254 3021 1264 3006 1319 2532 1327 2404L1333 2290 1654 2290C1831 2290 2013 2293 2059 2297ZM1197 2438C1215 2450 1223 2496 1210 2520 1199 2540 1191 2542 1132 2540 1033 2536 990 2539 990 2549 990 2554 1040 2562 1100 2565 1202 2572 1211 2574 1216 2594 1219 2606 1216 2628 1211 2643 1201 2669 1197 2670 1131 2670 1053 2670 1000 2679 1000 2691 1000 2696 1031 2700 1069 2700 1107 2700 1152 2703 1169 2706 1196 2712 1200 2717 1200 2745 1200 2784 1186 2790 1083 2790 983 2790 991 2809 1093 2812 1173 2815 1175 2816 1178 2841 1182 2876 1152 2887 1032 2894 949 2899 938 2898 920 2880 909 2869 900 2856 900 2852 900 2847 887 2843 871 2843 852 2843 844 2848 847 2856 850 2865 845 2867 829 2863 811 2858 808 2860 813 2873 822 2896 808 2894 778 2867 742 2836 730 2807 719 2732 703 2621 741 2532 812 2515 835 2509 841 2512 852 2534 861 2555 861 2568 851 2596 839 2628 840 2634 859 2654 882 2678 885 2701 870 2730 860 2750 875 2810 891 2810 896 2810 895 2799 890 2785 884 2769 885 2750 892 2729 901 2703 899 2692 881 2659 864 2629 861 2616 870 2601 884 2573 883 2543 865 2516 846 2488 859 2444 887 2437 917 2429 1184 2430 1197 2438ZM2274 2951C2322 2979 2345 3030 2344 3106 2344 3155 2339 3173 2319 3198 2297 3226 2271 3243 2285 3220 2288 3215 2284 3200 2276 3188 2264 3169 2263 3157 2273 3122 2284 3079 2284 3077 2252 3049 2234 3033 2213 3020 2205 3020 2194 3020 2190 3008 2190 2975 2190 2934 2192 2930 2214 2930 2228 2930 2255 2939 2274 2951ZM1137 3057C1134 3067 1132 3059 1132 3040 1132 3021 1134 3013 1137 3022 1139 3032 1139 3048 1137 3057ZM2248 3097C2251 3135 2248 3139 2213 3160 2192 3173 2159 3199 2138 3218 2100 3254 2080 3254 2080 3217 2080 3193 2218 3048 2235 3053 2240 3055 2246 3075 2248 3097ZM1245 3200C1229 3216 1214 3227 1211 3224 1205 3218 1256 3170 1267 3170 1271 3170 1261 3183 1245 3200ZM2260 3203C2260 3212 2114 3360 2106 3360 2104 3360 2100 3351 2097 3339 2086 3297 2112 3259 2194 3199 2224 3177 2236 3173 2246 3181 2254 3187 2260 3197 2260 3203ZM1180 3230C1180 3241 1173 3250 1165 3250 1152 3250 1152 3247 1162 3230 1169 3219 1176 3210 1177 3210 1179 3210 1180 3219 1180 3230ZM2183 3374C2157 3399 2129 3420 2123 3420 2097 3420 2112 3390 2168 3330L2225 3267 2228 3298C2231 3323 2223 3336 2183 3374ZM1095 3330C1092 3374 1080 3379 1080 3337 1080 3316 1084 3300 1089 3300 1094 3300 1097 3314 1095 3330ZM2183 3434C2142 3473 2130 3477 2130 3456 2130 3449 2149 3425 2172 3404 2206 3374 2216 3369 2218 3382 2220 3391 2204 3415 2183 3434ZM1068 3557C1063 3584 1061 3617 1064 3632 1067 3647 1066 3662 1061 3664 1056 3667 1050 3698 1046 3732 1039 3798 1026 3883 1009 3985 1003 4019 997 4061 995 4080 979 4219 951 4353 915 4465 858 4642 815 4824 775 5059 762 5138 749 5205 745 5208 736 5218 739 5185 765 5033 806 4788 858 4573 919 4396 931 4364 953 4256 970 4156 997 3988 1060 3541 1060 3512 1060 3505 1064 3501 1069 3504 1074 3507 1074 3530 1068 3557ZM1636 4569C1626 4580 1624 4590 1631 4602 1637 4612 1635 4644 1625 4692 1606 4784 1580 4988 1580 5041 1580 5069 1576 5080 1565 5080 1544 5080 1545 5062 1586 4841 1606 4733 1622 4643 1622 4640 1623 4637 1620 4623 1616 4608 1610 4589 1613 4574 1624 4558 1637 4540 1640 4501 1642 4345L1645 4155 1647 4354C1650 4517 1648 4556 1636 4569ZM2126 4377C2123 4398 2120 4429 2120 4445 2120 4467 2107 4490 2075 4525 2029 4577 2016 4577 2049 4526 2060 4509 2072 4469 2076 4433 2082 4372 2098 4340 2122 4340 2129 4340 2130 4354 2126 4377ZM2059 4649C2050 4724 2045 4739 2034 4727 2028 4721 2048 4594 2057 4577 2068 4559 2068 4579 2059 4649ZM1002 4909C1068 4933 1158 4950 1223 4950 1272 4950 1272 4950 1267 4977 1263 4993 1249 5061 1235 5130 1220 5199 1205 5259 1200 5264 1189 5275 973 5285 926 5276L890 5269 890 5181C890 5116 897 5069 915 5006 929 4959 940 4913 940 4905 940 4886 939 4886 1002 4909ZM1555 5139C1552 5160 1542 5197 1534 5221L1520 5265 1525 5222C1536 5128 1542 5100 1552 5100 1558 5100 1559 5115 1555 5139ZM2030 5191C2030 5196 2023 5197 2015 5194 2007 5190 2000 5181 2000 5173 2000 5160 2003 5160 2015 5170 2023 5177 2030 5186 2030 5191ZM2049 5307C2050 5320 2046 5330 2040 5330 2034 5330 2030 5303 2031 5267 2032 5208 2033 5207 2041 5245 2045 5267 2049 5295 2049 5307ZM760 5339C760 5374 744 5378 744 5342 743 5322 740 5294 736 5280 732 5266 736 5269 744 5289 753 5307 760 5330 760 5339ZM1511 5303C1505 5311 1503 5326 1507 5335 1511 5348 1510 5351 1502 5346 1487 5337 1487 5307 1502 5292 1518 5276 1526 5286 1511 5303ZM2124 5406C2155 5428 2153 5450 2119 5450 2107 5450 2100 5443 2100 5430 2100 5419 2096 5410 2090 5410 2069 5410 2082 5440 2113 5464 2148 5491 2170 5497 2170 5480 2170 5474 2163 5470 2155 5470 2147 5470 2140 5465 2140 5460 2140 5454 2151 5450 2165 5450 2194 5450 2200 5480 2175 5500 2155 5517 2129 5504 2055 5438 2002 5390 1984 5362 2015 5374 2023 5377 2030 5375 2030 5370 2030 5355 2064 5354 2080 5370 2088 5378 2108 5394 2124 5406ZM2056 5452C2140 5527 2143 5534 2119 5601 2106 5636 2106 5637 2056 5633 2028 5630 1953 5620 1890 5610 1757 5590 1706 5564 1697 5515 1693 5498 1688 5476 1685 5464 1679 5445 1684 5442 1752 5431 1792 5425 1857 5411 1895 5401 1934 5390 1968 5381 1971 5381 1975 5380 2013 5412 2056 5452ZM724 5447C713 5485 712 5504 719 5519 734 5546 732 5590 715 5620 700 5646 696 5629 709 5595 714 5583 711 5563 702 5543 688 5514 689 5507 710 5450 737 5377 745 5376 724 5447ZM1516 5428C1507 5436 1490 5418 1490 5402 1491 5387 1492 5387 1505 5404 1513 5415 1518 5425 1516 5428ZM2346 5536C2364 5550 2364 5550 2340 5539 2309 5525 2304 5520 2316 5520 2322 5520 2335 5527 2346 5536ZM1501 5577C1493 5592 1491 5592 1490 5579 1490 5562 1500 5547 1508 5554 1510 5557 1507 5567 1501 5577ZM2387 5582C2384 5590 2381 5587 2381 5576 2380 5565 2383 5559 2386 5563 2389 5566 2390 5575 2387 5582ZM1762 5618C1788 5631 1815 5640 1823 5637 1831 5634 1884 5638 1941 5645 1998 5653 2079 5660 2119 5660 2179 5660 2191 5663 2182 5672 2166 5688 2035 5683 2009 5667 1995 5658 1987 5659 1978 5668 1960 5686 1771 5684 1746 5665 1722 5647 1674 5645 1664 5662 1655 5676 1643 5643 1641 5603 1640 5583 1644 5582 1678 5587 1698 5590 1736 5604 1762 5618ZM1487 5667C1485 5683 1483 5672 1483 5645 1483 5617 1485 5605 1487 5617 1489 5630 1489 5652 1487 5667ZM2371 5627C2363 5642 2361 5642 2360 5629 2360 5612 2370 5597 2378 5604 2380 5607 2377 5617 2371 5627ZM930 5640C930 5645 939 5650 950 5650 961 5650 970 5645 970 5640 970 5625 987 5628 1006 5647 1019 5660 1025 5661 1028 5652 1033 5637 1057 5636 1066 5652 1070 5659 1069 5660 1062 5656 1055 5652 1050 5654 1050 5659 1050 5669 1064 5674 1083 5671 1088 5670 1090 5675 1087 5682 1085 5690 1070 5694 1051 5692 1008 5689 1012 5706 1056 5714 1100 5723 1096 5746 1051 5742 1034 5741 1020 5744 1020 5749 1020 5760 1079 5772 1092 5764 1098 5760 1100 5766 1095 5779 1091 5792 1094 5808 1102 5817 1113 5832 1113 5833 1095 5826 1084 5821 1066 5815 1055 5812 1044 5809 1031 5802 1027 5796 1021 5788 1017 5789 1013 5797 1007 5812 920 5815 920 5800 920 5784 898 5788 883 5807 873 5820 867 5822 864 5812 856 5795 827 5796 833 5814 836 5822 831 5830 819 5833 805 5837 799 5832 795 5817 788 5786 803 5725 818 5724 840 5721 841 5720 833 5707 817 5682 823 5672 857 5665 882 5661 890 5655 886 5644 882 5634 888 5630 905 5630 919 5630 930 5634 930 5640ZM863 5647C856 5649 844 5649 838 5647 831 5644 836 5642 850 5642 864 5642 869 5644 863 5647ZM800 5667C799 5677 793 5712 785 5744 777 5776 773 5815 776 5829 780 5850 773 5861 740 5888L700 5921 700 5857C700 5822 705 5768 711 5738 721 5691 727 5680 754 5667 795 5646 800 5647 800 5667ZM2330 5670C2341 5677 2337 5680 2312 5680 2292 5680 2281 5676 2285 5670 2293 5657 2311 5657 2330 5670ZM1145 5707C1148 5728 1159 5775 1169 5812 1179 5850 1185 5880 1183 5880 1181 5880 1169 5873 1155 5864 1129 5847 1110 5781 1110 5710 1110 5656 1137 5655 1145 5707ZM1114 5962C1135 5974 1179 6021 1180 6033 1180 6038 1176 6039 1172 6036 1167 6033 1142 6035 1114 6039 1063 6047 1068 6054 1133 6065 1184 6073 1173 6086 1118 6082 1094 6080 1051 6078 1022 6077 989 6076 966 6070 961 6061 953 6048 926 6042 867 6040 855 6039 850 6034 854 6024 857 6016 855 6010 850 6010 844 6010 840 6001 840 5990 840 5971 875 5956 940 5947 981 5941 1093 5951 1114 5962ZM1380 565C1361 585 1359 593 1368 602 1378 612 1382 610 1386 592 1390 580 1399 570 1406 570 1421 570 1425 554 1411 546 1407 543 1392 552 1380 565ZM1370 735C1370 778 1374 810 1380 810 1386 810 1390 778 1390 735 1390 692 1386 660 1380 660 1374 660 1370 692 1370 735ZM1446 1039C1429 1058 1429 1058 1450 1053 1463 1050 1475 1054 1483 1064 1496 1080 1545 1076 1534 1059 1531 1054 1535 1050 1544 1050 1552 1050 1560 1056 1563 1062 1565 1069 1571 1071 1576 1067 1581 1062 1575 1050 1561 1039 1530 1014 1469 1014 1446 1039ZM1729 1041C1706 1064 1711 1080 1734 1060 1747 1050 1753 1051 1766 1064 1781 1080 1784 1080 1801 1064 1812 1054 1828 1050 1841 1053 1861 1058 1861 1058 1844 1039 1820 1012 1757 1013 1729 1041ZM1565 1250C1562 1256 1567 1263 1577 1266 1587 1269 1610 1278 1628 1286 1657 1298 1664 1298 1700 1279 1722 1267 1740 1254 1740 1249 1740 1237 1735 1238 1693 1255 1660 1269 1652 1269 1618 1255 1573 1237 1573 1237 1565 1250ZM1805 1309C1768 1328 1526 1338 1481 1322 1465 1316 1449 1314 1446 1317 1437 1327 1522 1410 1562 1431 1616 1459 1706 1457 1747 1427 1780 1404 1854 1303 1842 1297 1838 1295 1822 1300 1805 1309ZM1790 1352C1790 1359 1779 1378 1766 1395 1745 1421 1734 1425 1677 1430 1602 1436 1543 1417 1516 1378L1500 1355 1627 1350C1698 1347 1763 1343 1773 1342 1782 1341 1790 1346 1790 1352ZM1648 1507C1654 1509 1666 1509 1673 1507 1679 1504 1674 1502 1660 1502 1646 1502 1641 1504 1648 1507ZM1497 2366C1493 2370 1495 2379 1502 2387 1510 2397 1510 2407 1500 2426 1483 2457 1500 2481 1525 2460 1536 2451 1539 2438 1534 2416 1527 2382 1508 2356 1497 2366ZM1620 2380C1620 2386 1683 2390 1790 2390 1897 2390 1960 2386 1960 2380 1960 2374 1897 2370 1790 2370 1683 2370 1620 2374 1620 2380ZM2046 5405C2050 5413 2056 5420 2061 5420 2065 5420 2067 5413 2064 5405 2060 5397 2054 5390 2049 5390 2045 5390 2043 5397 2046 5405ZM930 5690C930 5695 944 5700 960 5700 977 5700 990 5695 990 5690 990 5684 977 5680 960 5680 944 5680 930 5684 930 5690ZM855 5700C852 5705 858 5710 869 5710 881 5710 890 5705 890 5700 890 5694 884 5690 876 5690 868 5690 858 5694 855 5700ZM900 5740C900 5745 923 5750 950 5750 978 5750 1000 5745 1000 5740 1000 5734 978 5730 950 5730 923 5730 900 5734 900 5740ZM810 5765C810 5774 816 5777 825 5774 833 5770 840 5764 840 5759 840 5754 833 5750 825 5750 817 5750 810 5757 810 5765Z"
  />
</symbol>
    </defs>
    <g id="ink-check">
        <use class="glyph color-white" style="stroke-width:3" xlink:href="#check" />
    </g>
    <g id="ink-chevron-down">
        <use class="glyph" xlink:href="#chevron-right-large" />
    </g>
    <g id="ink-chevron-left-white">
        <use class="glyph" style="color:#fff" transform="rotate(180,48,48)" xlink:href="#chevron-right-large" />
    </g>
    <g id="ink-chevron-right-white">
        <use class="glyph" style="color:#fff" xlink:href="#chevron-right-large" />
    </g>
    <g id="ink-reload">
        <use class="glyph" xlink:href="#reload" />
    </g>
    <g id="ink-reload.blue" class="color-blue">
        <use class="glyph" xlink:href="#reload" />
    </g>
    <g id="arrow-right">
        <use class="glyph" xlink:href="#arrow" />
    </g>
    <g id="arrow-left">
        <use class="glyph" xlink:href="#arrow" />
    </g>
    <g id="arrow-right-black">
        <use class="glyph" xlink:href="#arrow" />
    </g>
    <g id="arrow-right-black">
        <use class="glyph" xlink:href="#arrow" />
    </g>
    <g id="ink-arrow-down">
        <use class="glyph" style="color:#767676" xlink:href="#arrow-down" />
    </g>
    <g id="cardin">
        <use class="glyph" xlink:href="#card-in" />
    </g>
    <g id="ink-locker">
        <use class="glyph" xlink:href="#locker" />
    </g>
    <g id="ink-close.white">
        <use class="glyph color-white" xlink:href="#block" style="stroke-width:8%" />
    </g>
    <g id="ink-security">
        <use class="fill color-white" xlink:href="#security" />
    </g>
    <g id="ink-message-error">
        <use class="fill color-pink" xlink:href="#message-error-fill" />
    </g>
    <g id="ink-message-success">
        <use class="fill" xlink:href="#message-success-fill" style="color:#52ae30" />
    </g>
    <g id="ink-message-success-white">
        <use class="fill color-white" xlink:href="#message-success-fill" />
    </g>
    <g id="ink-message-info">
        <use class="fill color-lightblue" xlink:href="#message-info-fill" />
    </g>
    <g id="ink-pencil-fill">
        <use class="glyph color-blue" xlink:href="#pencil-fill" />
    </g>
    <g id="ink-plus-fill">
        <use class="glyph color-blue" xlink:href="#plus-fill" />
    </g>
    <g id="ink-close-fill">
        <use class="fill color-pink" xlink:href="#close-fill" />
    </g>
    <g id="ink-close-fill-white">
        <use class="fill color-white" xlink:href="#close-fill" />
    </g>
    <g id="ink-user">
        <use class="glyph color-blue" xlink:href="#user" />
    </g>
    <g id="ink-user-white">
        <use class="glyph color-white" xlink:href="#user" />
    </g>
</svg>